<?xml version="1.0" standalone="no"?>
<!DOCTYPE svg PUBLIC "-//W3C//DTD SVG 1.1//EN" "http://www.w3.org/Graphics/SVG/1.1/DTD/svg11.dtd" >
<svg xmlns="http://www.w3.org/2000/svg" xmlns:xlink="http://www.w3.org/1999/xlink" version="1.1">
<metadata>
Created by FontForge 20170731 at Wed Mar 22 14:40:50 2023
 By Aleksey,,,
Copyright (c) 2021 Fontwerk GmbH. All rights reserved.
</metadata>
<defs>
<font id="IkaTrial-Bold" horiz-adv-x="0" >
  <font-face 
    font-family="Ika Trial"
    font-weight="700"
    font-stretch="normal"
    units-per-em="2048"
    panose-1="2 11 8 4 0 0 0 0 0 0"
    ascent="1618"
    descent="-430"
    x-height="1110"
    cap-height="1454"
    bbox="-924 -446 2204 2023"
    underline-thickness="159"
    underline-position="-509"
    unicode-range="U+000D-FEFF"
  />
<missing-glyph horiz-adv-x="1064" 
d="M1065 0h-1065v1454h1065v-1454zM174 1282v-1110h717v1110h-717z" />
    <glyph glyph-name=".notdef" horiz-adv-x="1064" 
d="M1065 0h-1065v1454h1065v-1454zM174 1282v-1110h717v1110h-717z" />
    <glyph glyph-name=".null" 
 />
    <glyph glyph-name="nonmarkingreturn" horiz-adv-x="682" 
 />
    <glyph glyph-name="CR" unicode="&#xd;" horiz-adv-x="471" 
 />
    <glyph glyph-name="space" unicode=" " horiz-adv-x="471" 
 />
    <glyph glyph-name="comma" unicode="," horiz-adv-x="616" 
d="M283 -219h-228l133 543h289z" />
    <glyph glyph-name="period" unicode="." horiz-adv-x="616" 
d="M307 -20q-73 0 -123.5 50t-50.5 124q0 75 50 124.5t124 49.5q76 0 126 -49.5t50 -124.5q0 -74 -50 -124t-126 -50z" />
    <glyph glyph-name="zero" unicode="0" horiz-adv-x="1247" 
d="M625 -29q-256 0 -388.5 192t-132.5 564t132.5 564t388.5 192q255 0 386.5 -192t131.5 -564t-131.5 -564t-386.5 -192zM625 201q215 0 215 510v32q0 510 -215 510q-109 0 -163 -125t-54 -385v-32q0 -260 54 -385t163 -125z" />
    <glyph glyph-name="one" unicode="1" horiz-adv-x="882" 
d="M612 0h-307v1176l-260 -54v205l373 127h194v-1454z" />
    <glyph glyph-name="two" unicode="2" horiz-adv-x="1136" 
d="M1016 0h-924v221l342 361q153 160 214 258t61 180v8q0 93 -67 148t-181 55q-149 0 -330 -101l-18 263q184 90 401 90q241 0 371.5 -109t130.5 -309q0 -149 -87 -291t-308 -354l-160 -172v-4h555v-244z" />
    <glyph glyph-name="three" unicode="3" horiz-adv-x="1130" 
d="M469 -29q-200 0 -383 60l18 256q164 -68 326 -68q135 0 212 58t77 159v8q0 111 -86.5 164.5t-267.5 53.5h-21l-14 149l307 395v4h-543v244h862v-215l-311 -399q180 -22 278.5 -129.5t98.5 -282.5q0 -216 -146 -336.5t-407 -120.5z" />
    <glyph glyph-name="four" unicode="4" horiz-adv-x="1239" 
d="M995 0h-301v301h-628v260l565 893h364v-930h174v-223h-174v-301zM281 524v-4h421v666h-4z" />
    <glyph glyph-name="five" unicode="5" horiz-adv-x="1126" 
d="M446 -29q-194 0 -362 52l16 256q164 -64 320 -64q138 0 216.5 65t78.5 179v6q0 114 -75.5 177t-211.5 63q-106 0 -231 -41l-62 100v690h826v-246h-555v-315q89 29 176 29q200 0 317 -123.5t117 -335.5q0 -235 -149 -363.5t-421 -128.5z" />
    <glyph glyph-name="six" unicode="6" horiz-adv-x="1228" 
d="M643 -29q-258 0 -395 167.5t-137 482.5q0 379 200 598.5t586 263.5l21 -244q-240 -32 -375 -154t-160 -331l6 -2q54 84 141.5 128t198.5 44q188 0 299 -123t111 -334q0 -231 -132.5 -363.5t-363.5 -132.5zM641 195q97 0 153 66t56 183v15q0 117 -55.5 181.5t-155.5 64.5
t-159.5 -64.5t-59.5 -171.5v-14q0 -119 60 -189.5t161 -70.5z" />
    <glyph glyph-name="seven" unicode="7" horiz-adv-x="1083" 
d="M528 0h-329l501 1202h-637v252h953v-227z" />
    <glyph glyph-name="eight" unicode="8" horiz-adv-x="1216" 
d="M604 -29q-236 0 -371 111.5t-135 306.5q0 132 64.5 226t187.5 141v4q-211 88 -211 325q0 186 125.5 292t347.5 106q218 0 341.5 -104t123.5 -287q0 -239 -215 -332v-4q125 -44 190.5 -137t65.5 -226q0 -195 -137.5 -308.5t-376.5 -113.5zM608 848q89 0 142 56t53 151v14
q0 95 -52.5 150t-142.5 55q-91 0 -142.5 -55t-51.5 -150v-14q0 -96 52 -151.5t142 -55.5zM608 195q98 0 155.5 59t57.5 160v16q0 102 -58 162.5t-155 60.5t-156 -60.5t-59 -162.5v-16q0 -101 57.5 -160t157.5 -59z" />
    <glyph glyph-name="nine" unicode="9" horiz-adv-x="1228" 
d="M289 -29l-23 244q260 26 407 148t173 335l-6 2q-54 -82 -141 -126t-197 -44q-189 0 -299.5 122.5t-110.5 334.5q0 232 132 364t364 132q258 0 395 -167.5t137 -479.5q0 -385 -211.5 -606t-619.5 -259zM592 750q100 0 159.5 64t59.5 171v14q0 119 -60 190t-161 71
q-97 0 -153 -66.5t-56 -183.5v-15q0 -117 55.5 -181t155.5 -64z" />
    <glyph glyph-name="A" unicode="A" horiz-adv-x="1396" 
d="M338 0h-315l469 1454h413l471 -1454h-332l-92 303h-524zM688 1184l-199 -660h402l-199 660h-4z" />
    <glyph glyph-name="B" unicode="B" horiz-adv-x="1355" 
d="M963 766v-4q294 -72 294 -342q0 -198 -144 -309t-402 -111h-561v1454h514q267 0 403.5 -93t136.5 -274q0 -241 -241 -321zM645 1239h-186v-395h194q116 0 179 49.5t63 140.5v15q0 92 -64.5 141t-185.5 49zM676 641h-217v-426h227q126 0 194 54t68 155v16q0 99 -69 150
t-203 51z" />
    <glyph glyph-name="C" unicode="C" horiz-adv-x="1206" 
d="M733 -29q-310 0 -471.5 189t-161.5 553q0 374 167 572t481 198q193 0 378 -70l-22 -270q-168 84 -316 84q-175 0 -268.5 -127t-93.5 -363v-30q0 -231 94 -355.5t268 -124.5q151 0 336 90l19 -270q-194 -76 -410 -76z" />
    <glyph glyph-name="D" unicode="D" horiz-adv-x="1439" 
d="M684 0h-534v1454h514q337 0 507 -183t170 -544q0 -358 -166.5 -542.5t-490.5 -184.5zM471 1206v-958h205q346 0 346 463v32q0 463 -352 463h-199z" />
    <glyph glyph-name="E" unicode="E" horiz-adv-x="1142" 
d="M1063 0h-913v1454h894v-248h-581v-348h532v-237h-532v-373h600v-248z" />
    <glyph glyph-name="F" unicode="F" horiz-adv-x="1097" 
d="M465 0h-315v1454h872v-256h-557v-371h514v-245h-514v-582z" />
    <glyph glyph-name="G" unicode="G" horiz-adv-x="1400" 
d="M733 588v211h543v-717q-108 -52 -244 -81.5t-268 -29.5q-324 0 -491 187.5t-167 552.5q0 381 177 576.5t520 195.5q222 0 426 -82l-21 -277q-199 103 -379 103q-405 0 -405 -496v-35q0 -491 391 -491q96 0 172 16v367h-254z" />
    <glyph glyph-name="H" unicode="H" horiz-adv-x="1452" 
d="M469 0h-319v1454h319v-575h514v575h320v-1454h-320v614h-514v-614z" />
    <glyph glyph-name="I" unicode="I" horiz-adv-x="618" 
d="M469 0h-319v1454h319v-1454z" />
    <glyph glyph-name="J" unicode="J" horiz-adv-x="808" 
d="M248 -29q-84 0 -201 21v239q82 -12 117 -12q100 0 143 48.5t43 160.5v1026h320v-1059q0 -224 -99.5 -324t-322.5 -100z" />
    <glyph glyph-name="K" unicode="K" horiz-adv-x="1363" 
d="M467 0h-317v1454h317v-635h6l471 635h356l-540 -706l565 -748h-373l-479 655h-6v-655z" />
    <glyph glyph-name="L" unicode="L" horiz-adv-x="1052" 
d="M1010 0h-860v1454h321v-1190h539v-264z" />
    <glyph glyph-name="M" unicode="M" horiz-adv-x="1763" 
d="M461 0h-311v1454h311l420 -682l419 682h312v-1454h-312v944h-4l-407 -670h-15l-409 670h-4v-944z" />
    <glyph glyph-name="N" unicode="N" horiz-adv-x="1507" 
d="M453 0h-303v1454h335l566 -940h4v940h303v-1454h-303l-598 995h-4v-995z" />
    <glyph glyph-name="O" unicode="O" horiz-adv-x="1499" 
d="M750 -29q-317 0 -480.5 192t-163.5 564t163.5 564t480.5 192q316 0 479.5 -192t163.5 -564t-163.5 -564t-479.5 -192zM750 219q161 0 240 122t79 370v32q0 248 -79 370t-240 122q-322 0 -322 -492v-32q0 -492 322 -492z" />
    <glyph glyph-name="P" unicode="P" horiz-adv-x="1275" 
d="M463 0h-313v1454h530q262 0 399.5 -117t137.5 -340t-132.5 -339.5t-384.5 -116.5h-237v-541zM463 1219v-453h201q115 0 177 57.5t62 163.5v14q0 106 -64 162t-184 56h-192z" />
    <glyph glyph-name="Q" unicode="Q" horiz-adv-x="1499" 
d="M1374 -76l-174 -203l-409 252q-7 0 -27.5 -1t-32.5 -1q-303 0 -464 195t-161 563q0 369 163.5 561.5t478.5 192.5q313 0 479 -189.5t166 -545.5q0 -240 -75.5 -411t-223.5 -263zM750 219q161 0 240 122t79 370v32q0 248 -79 370t-240 122q-322 0 -322 -492v-32
q0 -492 322 -492z" />
    <glyph glyph-name="R" unicode="R" horiz-adv-x="1327" 
d="M463 0h-313v1454h532q264 0 401.5 -104t137.5 -303q0 -303 -301 -383v-5q76 -25 121.5 -75t80.5 -148l160 -436h-336l-139 420q-29 85 -84.5 120t-161.5 35h-98v-575zM463 1219v-431h209q113 0 174 53.5t61 153.5v15q0 101 -62.5 155t-180.5 54h-201z" />
    <glyph glyph-name="S" unicode="S" horiz-adv-x="1155" 
d="M516 -29q-203 0 -420 82l19 275q213 -109 383 -109q109 0 171 47.5t62 130.5v4q0 43 -19 78t-59 62.5t-76 45.5t-96 42q-39 16 -59.5 24.5t-58.5 26t-59.5 30.5t-53.5 35t-50.5 42.5t-40.5 49.5t-33.5 60t-19.5 70t-8 82q0 198 139 316t371 118q182 0 373 -70l-18 -270
q-198 92 -332 92q-97 0 -154 -43t-57 -115v-6q0 -38 17 -68t55 -55t71.5 -40.5t93.5 -39.5h1l1 -1h1l1 -1h1h1l1 -1h1l1 -1q153 -61 220 -109q166 -118 167 -327q0 -210 -145.5 -333.5t-391.5 -123.5z" />
    <glyph glyph-name="T" unicode="T" horiz-adv-x="1124" 
d="M721 0h-320v1194h-370v260h1061v-260h-371v-1194z" />
    <glyph glyph-name="U" unicode="U" horiz-adv-x="1476" 
d="M737 -29q-308 0 -453 148t-145 461v874h320v-874q0 -183 66.5 -268t211.5 -85q146 0 213.5 85t67.5 268v874h319v-874q0 -314 -145.5 -461.5t-454.5 -147.5z" />
    <glyph glyph-name="V" unicode="V" horiz-adv-x="1368" 
d="M874 0h-380l-474 1454h336l334 -1116h4l334 1116h320z" />
    <glyph glyph-name="W" unicode="W" horiz-adv-x="2080" 
d="M791 0h-336l-408 1454h340l252 -995h4l240 995h329l242 -995h4l250 995h326l-410 -1454h-336l-246 1018h-4z" />
    <glyph glyph-name="X" unicode="X" horiz-adv-x="1417" 
d="M391 0h-354l469 739l-447 715h369l289 -506l289 506h352l-447 -700l469 -754h-370l-310 545z" />
    <glyph glyph-name="Y" unicode="Y" horiz-adv-x="1351" 
d="M836 0h-320v547l-498 907h355l309 -608h4l307 608h340l-497 -907v-547z" />
    <glyph glyph-name="Z" unicode="Z" horiz-adv-x="1239" 
d="M1137 0h-1043v225l639 981h-618v248h1009v-225l-639 -981h652v-248z" />
    <glyph glyph-name="grave" unicode="`" horiz-adv-x="571" 
d="M530 1212h-221l-268 344h301z" />
    <glyph glyph-name="a" unicode="a" horiz-adv-x="1267" 
d="M504 -25q-200 0 -307 147.5t-107 426.5q0 277 110.5 431.5t313.5 154.5q223 0 322 -191h4l24 166h264v-1110h-288v180h-4q-102 -205 -332 -205zM610 203q100 0 155.5 72t55.5 204v152q0 131 -55 203.5t-154 72.5q-105 0 -159 -84.5t-54 -251.5v-32q0 -336 211 -336z" />
    <glyph glyph-name="b" unicode="b" horiz-adv-x="1267" 
d="M754 -25q-229 0 -322 191h-4l-25 -166h-264v1536h307v-573h5q105 172 315 172q198 0 305 -151.5t107 -422.5q0 -283 -110 -434.5t-314 -151.5zM657 203q103 0 157 85t54 251v32q0 336 -209 336q-100 0 -156.5 -73.5t-56.5 -202.5v-154q0 -129 55.5 -201.5t155.5 -72.5z
" />
    <glyph glyph-name="c" unicode="c" horiz-adv-x="980" 
d="M598 -25q-249 0 -378.5 145t-129.5 425q0 281 137 435.5t385 154.5q150 0 271 -48l-21 -251q-98 57 -211 57q-122 0 -187 -85.5t-65 -246.5v-16q0 -155 65.5 -241.5t182.5 -86.5q113 0 234 64l16 -246q-130 -60 -299 -60z" />
    <glyph glyph-name="d" unicode="d" horiz-adv-x="1267" 
d="M504 -25q-201 0 -307.5 147.5t-106.5 426.5t111.5 432.5t312.5 153.5q205 0 303 -158h4v559h307v-1536h-288v180h-4q-102 -205 -332 -205zM610 203q100 0 155.5 73t55.5 203v152q0 130 -55.5 203t-153.5 73q-105 0 -159 -84.5t-54 -251.5v-32q0 -336 211 -336z" />
    <glyph glyph-name="e" unicode="e" horiz-adv-x="1179" 
d="M651 -25q-277 0 -419 144t-142 426q0 280 137.5 435t386.5 155q238 0 361 -148t123 -436q0 -49 -2 -78h-703q12 -141 90 -214t215 -73q153 0 338 76l19 -215q-198 -72 -404 -72zM395 645h408q-3 152 -51.5 223.5t-145.5 71.5q-99 0 -153 -74t-58 -221z" />
    <glyph glyph-name="f" unicode="f" horiz-adv-x="763" 
d="M510 0h-307v887h-168v223h168v88q0 193 90.5 278t296.5 85q42 0 170 -11v-213q-14 1 -53.5 6t-57.5 5q-139 0 -139 -150v-88h250v-223h-250v-887z" />
    <glyph glyph-name="g" unicode="g" horiz-adv-x="1267" 
d="M567 -430q-213 0 -420 70l17 221q195 -76 354 -76q154 0 228.5 73t74.5 224v100h-4q-105 -166 -315 -166q-198 0 -305 142t-107 407q0 266 111.5 418t310.5 152q222 0 324 -185h4l22 160h266v-1020q0 -261 -139.5 -390.5t-421.5 -129.5zM610 240q100 0 155.5 71.5
t55.5 200.5v125q0 129 -54.5 200.5t-154.5 71.5q-105 0 -159 -80.5t-54 -238.5v-31q0 -319 211 -319z" />
    <glyph glyph-name="h" unicode="h" horiz-adv-x="1263" 
d="M446 0h-307v1536h307v-561h5q51 77 136 118.5t193 41.5q170 0 260 -103t90 -299v-733h-307v684q0 207 -172 207q-94 0 -149.5 -59.5t-55.5 -161.5v-670z" />
    <glyph glyph-name="i" unicode="i" horiz-adv-x="585" 
d="M293 1241q-74 0 -125 49t-51 119q0 69 51.5 117.5t124.5 48.5q75 0 126.5 -48.5t51.5 -117.5q0 -71 -51.5 -119.5t-126.5 -48.5zM446 0h-307v1110h307v-1110z" />
    <glyph glyph-name="j" unicode="j" horiz-adv-x="585" 
d="M293 1241q-74 0 -125 49t-51 119q0 69 51.5 117.5t124.5 48.5q75 0 126.5 -48.5t51.5 -117.5q0 -71 -51.5 -119.5t-126.5 -48.5zM94 -430q-78 0 -166 10v209q20 -4 76 -4q73 0 104 30.5t31 102.5v1192h307v-1192q0 -186 -82 -267t-270 -81z" />
    <glyph glyph-name="k" unicode="k" horiz-adv-x="1173" 
d="M446 0h-307v1536h307v-903h5l342 477h340l-406 -535l430 -575h-358l-348 489h-5v-489z" />
    <glyph glyph-name="l" unicode="l" horiz-adv-x="585" 
d="M446 0h-307v1536h307v-1536z" />
    <glyph glyph-name="m" unicode="m" horiz-adv-x="1894" 
d="M446 0h-307v1110h295v-149h4q102 174 328 174q110 0 187 -47t114 -136q50 88 139.5 135.5t206.5 47.5q169 0 258.5 -101t89.5 -293v-741h-307v694q0 197 -160 197q-89 0 -139.5 -55.5t-50.5 -153.5v-682h-307v694q0 197 -160 197q-88 0 -139.5 -55.5t-51.5 -153.5v-682z
" />
    <glyph glyph-name="n" unicode="n" horiz-adv-x="1263" 
d="M446 0h-307v1110h295v-158h4q47 89 135 136t205 47q172 0 262 -103t90 -299v-733h-307v684q0 207 -172 207q-94 0 -149.5 -59.5t-55.5 -161.5v-670z" />
    <glyph glyph-name="o" unicode="o" horiz-adv-x="1239" 
d="M618 -25q-255 0 -391.5 150t-136.5 430t136.5 430t391.5 150q256 0 392.5 -150t136.5 -430q0 -281 -136 -430.5t-393 -149.5zM618 193q220 0 220 346v32q0 347 -220 347q-219 0 -219 -347v-32q0 -346 219 -346z" />
    <glyph glyph-name="p" unicode="p" horiz-adv-x="1267" 
d="M446 -406h-307v1516h297v-166h4q102 191 326 191q196 0 304 -150t108 -424q0 -283 -109.5 -434.5t-316.5 -151.5q-199 0 -301 156h-5v-537zM657 203q103 0 157 85t54 251v32q0 336 -209 336q-100 0 -156.5 -73.5t-56.5 -202.5v-154q0 -129 55.5 -201.5t155.5 -72.5z" />
    <glyph glyph-name="q" unicode="q" horiz-adv-x="1267" 
d="M1128 -406h-307v551h-4q-102 -170 -315 -170q-198 0 -305 148t-107 426q0 281 110.5 433.5t313.5 152.5q215 0 322 -191h4l24 166h264v-1516zM608 203q101 0 157 73t56 203v152q0 130 -55.5 203t-155.5 73q-103 0 -157 -85t-54 -251v-32q0 -336 209 -336z" />
    <glyph glyph-name="r" unicode="r" horiz-adv-x="833" 
d="M446 0h-307v1110h295v-195h6q32 106 105.5 163t179.5 57q11 0 68 -5v-264q-41 8 -97 8q-123 0 -186.5 -71t-63.5 -209v-594z" />
    <glyph glyph-name="s" unicode="s" horiz-adv-x="980" 
d="M446 -25q-199 0 -366 66l14 231q188 -82 338 -82q82 0 127 30.5t45 84.5v6q0 28 -14 50t-44 39.5t-58 29t-76 27.5q-35 12 -49 16.5t-49 18t-51.5 23t-46 27t-45 33.5t-36 40.5t-30.5 50.5t-17.5 59.5t-7.5 71.5q0 158 115 248t315 90q160 0 330 -56l-19 -227
q-168 68 -289 68q-72 0 -111.5 -27.5t-39.5 -77.5v-6q0 -18 5.5 -33.5t21.5 -29t27.5 -22t40 -20.5t41.5 -16.5t50 -17.5q36 -11 51 -16.5t50 -18.5t52.5 -22t47 -26.5t45.5 -33.5t36.5 -40t30.5 -50t17.5 -59.5t7.5 -71.5q0 -164 -123.5 -260.5t-335.5 -96.5z" />
    <glyph glyph-name="t" unicode="t" horiz-adv-x="823" 
d="M541 -25q-167 0 -249.5 87t-82.5 264v561h-168v223h168v274l307 35v-309h250v-223h-250v-502q0 -82 32.5 -121t102.5 -39q56 0 115 19v-238q-127 -31 -225 -31z" />
    <glyph glyph-name="u" unicode="u" horiz-adv-x="1255" 
d="M627 -25q-252 0 -373 111t-121 344v680h307v-680q0 -107 46 -159t141 -52t141.5 52t46.5 159v680h307v-680q0 -233 -120.5 -344t-374.5 -111z" />
    <glyph glyph-name="v" unicode="v" horiz-adv-x="1140" 
d="M743 0h-344l-374 1110h321l229 -788h5l229 788h307z" />
    <glyph glyph-name="w" unicode="w" horiz-adv-x="1763" 
d="M686 0h-313l-332 1110h317l191 -766h4l188 766h297l189 -766h4l190 766h301l-331 -1110h-314l-192 788h-4z" />
    <glyph glyph-name="x" unicode="x" horiz-adv-x="1220" 
d="M391 0h-356l368 567l-346 543h365l196 -369l195 369h350l-346 -530l369 -580h-371l-213 406z" />
    <glyph glyph-name="y" unicode="y" horiz-adv-x="1179" 
d="M580 -406h-336l186 467l-405 1049h327l244 -717h4l242 717h313z" />
    <glyph glyph-name="z" unicode="z" horiz-adv-x="1079" 
d="M1004 0h-924v203l502 676h-484v231h893v-203l-502 -676h515v-231z" />
    <glyph glyph-name="uni00A0" unicode="&#xa0;" horiz-adv-x="471" 
 />
    <glyph glyph-name="dieresis" unicode="&#xa8;" horiz-adv-x="811" 
d="M182 1245q-63 0 -106 43.5t-43 106.5q0 64 43 107.5t106 43.5q65 0 108.5 -43.5t43.5 -107.5q0 -63 -44 -106.5t-108 -43.5zM629 1245q-64 0 -108 43.5t-44 106.5q0 64 43.5 107.5t108.5 43.5q63 0 106 -43.5t43 -107.5q0 -63 -43 -106.5t-106 -43.5z" />
    <glyph glyph-name="macron" unicode="&#xaf;" horiz-adv-x="690" 
d="M649 1276h-608v170h608v-170z" />
    <glyph glyph-name="acute" unicode="&#xb4;" horiz-adv-x="571" 
d="M262 1212h-221l190 344h299z" />
    <glyph glyph-name="periodcentered" unicode="&#xb7;" horiz-adv-x="616" 
d="M307 399q-73 0 -123.5 50.5t-50.5 123.5q0 75 50 125t124 50q76 0 126 -50t50 -125q0 -74 -50 -124t-126 -50z" />
    <glyph glyph-name="cedilla" unicode="&#xb8;" horiz-adv-x="483" 
d="M186 -430q-83 0 -145 16v164q46 -12 82 -12q115 0 115 110q0 70 -52 152h183q73 -104 73 -207t-69 -163t-187 -60z" />
    <glyph glyph-name="Agrave" unicode="&#xc0;" horiz-adv-x="1396" 
d="M813 1561h-221l-268 344h299zM338 0h-315l469 1454h413l471 -1454h-332l-92 303h-524zM688 1184l-199 -660h402l-199 660h-4z" />
    <glyph glyph-name="Aacute" unicode="&#xc1;" horiz-adv-x="1396" 
d="M799 1561h-221l188 344h301zM338 0h-315l469 1454h413l471 -1454h-332l-92 303h-524zM688 1184l-199 -660h402l-199 660h-4z" />
    <glyph glyph-name="Acircumflex" unicode="&#xc2;" horiz-adv-x="1396" 
d="M547 1561h-213l239 344h250l240 -344h-213l-152 198zM338 0h-315l469 1454h413l471 -1454h-332l-92 303h-524zM688 1184l-199 -660h402l-199 660h-4z" />
    <glyph glyph-name="Atilde" unicode="&#xc3;" horiz-adv-x="1396" 
d="M846 1589q-48 0 -95.5 20t-79 44.5t-66 44.5t-58.5 20q-67 0 -76 -123h-145q6 138 65.5 216.5t159.5 78.5q48 0 96.5 -20t80 -44.5t65.5 -44.5t57 -20q67 0 76 123h147q-6 -138 -66 -216.5t-161 -78.5zM338 0h-315l469 1454h413l471 -1454h-332l-92 303h-524zM688 1184
l-199 -660h402l-199 660h-4z" />
    <glyph glyph-name="Adieresis" unicode="&#xc4;" horiz-adv-x="1396" 
d="M475 1591q-63 0 -106 43.5t-43 106.5q0 64 43 107.5t106 43.5q65 0 108.5 -43.5t43.5 -107.5q0 -63 -44 -106.5t-108 -43.5zM922 1591q-64 0 -108 43.5t-44 106.5q0 64 43.5 107.5t108.5 43.5q63 0 106 -43.5t43 -107.5q0 -63 -43 -106.5t-106 -43.5zM338 0h-315
l469 1454h413l471 -1454h-332l-92 303h-524zM688 1184l-199 -660h402l-199 660h-4z" />
    <glyph glyph-name="Aring" unicode="&#xc5;" horiz-adv-x="1396" 
d="M698 1550q-105 0 -175 68t-70 170q0 101 70 168t175 67t175.5 -67t70.5 -168q0 -102 -70.5 -170t-175.5 -68zM698 1679q45 0 75 31t30 78q0 46 -30.5 76t-74.5 30t-74 -30t-30 -76q0 -47 30 -78t74 -31zM338 0h-315l469 1454h413l471 -1454h-332l-92 303h-524zM688 1184
l-199 -660h402l-199 660h-4z" />
    <glyph glyph-name="AE" unicode="&#xc6;" horiz-adv-x="1916" 
d="M317 0h-331l757 1454h1076v-248h-582v-348h532v-237h-532v-373h600v-248h-913v303h-453zM920 1206l-347 -682h351v682h-4z" />
    <glyph glyph-name="Ccedilla" unicode="&#xc7;" horiz-adv-x="1206" 
d="M1124 317l19 -270q-143 -56 -309 -72q57 -89 57 -182q0 -103 -69 -163t-187 -60q-84 0 -146 16v164q46 -12 82 -12q115 0 115 110q0 60 -37 127q-269 25 -409 212.5t-140 525.5q0 374 167 572t481 198q193 0 378 -70l-22 -270q-168 84 -316 84q-175 0 -268.5 -127
t-93.5 -363v-30q0 -231 94 -355.5t268 -124.5q151 0 336 90z" />
    <glyph glyph-name="Egrave" unicode="&#xc8;" horiz-adv-x="1142" 
d="M713 1561h-221l-269 344h299zM1063 0h-913v1454h894v-248h-581v-348h532v-237h-532v-373h600v-248z" />
    <glyph glyph-name="Eacute" unicode="&#xc9;" horiz-adv-x="1142" 
d="M698 1561h-223l191 344h301zM1063 0h-913v1454h894v-248h-581v-348h532v-237h-532v-373h600v-248z" />
    <glyph glyph-name="Ecircumflex" unicode="&#xca;" horiz-adv-x="1142" 
d="M446 1561h-213l240 344h250l240 -344h-213l-152 198zM1063 0h-913v1454h894v-248h-581v-348h532v-237h-532v-373h600v-248z" />
    <glyph glyph-name="Edieresis" unicode="&#xcb;" horiz-adv-x="1142" 
d="M375 1591q-63 0 -106.5 43.5t-43.5 106.5q0 64 43.5 107.5t106.5 43.5q65 0 108 -43t43 -108q0 -63 -43.5 -106.5t-107.5 -43.5zM821 1591q-64 0 -107.5 43.5t-43.5 106.5q0 65 43 108t108 43q63 0 106.5 -43.5t43.5 -107.5q0 -63 -43.5 -106.5t-106.5 -43.5zM1063 0
h-913v1454h894v-248h-581v-348h532v-237h-532v-373h600v-248z" />
    <glyph glyph-name="Igrave" unicode="&#xcc;" horiz-adv-x="618" 
d="M424 1561h-221l-269 344h299zM469 0h-319v1454h319v-1454z" />
    <glyph glyph-name="Iacute" unicode="&#xcd;" horiz-adv-x="618" 
d="M408 1561h-222l191 344h301zM469 0h-319v1454h319v-1454z" />
    <glyph glyph-name="Icircumflex" unicode="&#xce;" horiz-adv-x="618" 
d="M158 1561h-213l239 344h250l240 -344h-213l-152 198zM469 0h-319v1454h319v-1454z" />
    <glyph glyph-name="Idieresis" unicode="&#xcf;" horiz-adv-x="618" 
d="M86 1591q-63 0 -106 43.5t-43 106.5q0 64 43 107.5t106 43.5q65 0 108.5 -43.5t43.5 -107.5q0 -63 -44 -106.5t-108 -43.5zM532 1591q-64 0 -107.5 43.5t-43.5 106.5q0 65 43.5 108t107.5 43q63 0 106.5 -43.5t43.5 -107.5q0 -63 -43.5 -106.5t-106.5 -43.5zM469 0h-319
v1454h319v-1454z" />
    <glyph glyph-name="Eth" unicode="&#xd0;" horiz-adv-x="1439" 
d="M684 0h-534v651h-127v174h127v629h514q337 0 507 -183t170 -544q0 -358 -166.5 -542.5t-490.5 -184.5zM471 651v-403h205q346 0 346 463v32q0 463 -352 463h-199v-381h223v-174h-223z" />
    <glyph glyph-name="Ntilde" unicode="&#xd1;" horiz-adv-x="1507" 
d="M901 1589q-48 0 -96.5 20t-80 44.5t-65.5 44.5t-57 20q-67 0 -76 -123h-147q6 138 66 216.5t161 78.5q48 0 95.5 -20t79 -44.5t66 -44.5t58.5 -20q67 0 76 123h145q-6 -138 -65.5 -216.5t-159.5 -78.5zM453 0h-303v1454h335l566 -940h4v940h303v-1454h-303l-598 995h-4
v-995z" />
    <glyph glyph-name="Ograve" unicode="&#xd2;" horiz-adv-x="1499" 
d="M864 1561h-221l-270 344h301zM750 -29q-317 0 -480.5 192t-163.5 564t163.5 564t480.5 192q316 0 479.5 -192t163.5 -564t-163.5 -564t-479.5 -192zM750 219q161 0 240 122t79 370v32q0 248 -79 370t-240 122q-322 0 -322 -492v-32q0 -492 322 -492z" />
    <glyph glyph-name="Oacute" unicode="&#xd3;" horiz-adv-x="1499" 
d="M848 1561h-221l190 344h299zM750 -29q-317 0 -480.5 192t-163.5 564t163.5 564t480.5 192q316 0 479.5 -192t163.5 -564t-163.5 -564t-479.5 -192zM750 219q161 0 240 122t79 370v32q0 248 -79 370t-240 122q-322 0 -322 -492v-32q0 -492 322 -492z" />
    <glyph glyph-name="Ocircumflex" unicode="&#xd4;" horiz-adv-x="1499" 
d="M598 1561h-213l240 344h249l240 -344h-213l-151 198zM750 -29q-317 0 -480.5 192t-163.5 564t163.5 564t480.5 192q316 0 479.5 -192t163.5 -564t-163.5 -564t-479.5 -192zM750 219q161 0 240 122t79 370v32q0 248 -79 370t-240 122q-322 0 -322 -492v-32
q0 -492 322 -492z" />
    <glyph glyph-name="Otilde" unicode="&#xd5;" horiz-adv-x="1499" 
d="M897 1589q-48 0 -96.5 20t-80 44.5t-65.5 44.5t-57 20q-67 0 -76 -123h-147q6 138 66 216.5t161 78.5q48 0 95.5 -20t79 -44.5t66 -44.5t58.5 -20q67 0 76 123h145q-6 -138 -65.5 -216.5t-159.5 -78.5zM750 -29q-317 0 -480.5 192t-163.5 564t163.5 564t480.5 192
q316 0 479.5 -192t163.5 -564t-163.5 -564t-479.5 -192zM750 219q161 0 240 122t79 370v32q0 248 -79 370t-240 122q-322 0 -322 -492v-32q0 -492 322 -492z" />
    <glyph glyph-name="Odieresis" unicode="&#xd6;" horiz-adv-x="1499" 
d="M526 1591q-63 0 -106 43.5t-43 106.5q0 64 43 107.5t106 43.5q65 0 108.5 -43.5t43.5 -107.5q0 -63 -44 -106.5t-108 -43.5zM973 1591q-64 0 -108 43.5t-44 106.5q0 64 43.5 107.5t108.5 43.5q63 0 106 -43.5t43 -107.5q0 -63 -43 -106.5t-106 -43.5zM750 -29
q-317 0 -480.5 192t-163.5 564t163.5 564t480.5 192q316 0 479.5 -192t163.5 -564t-163.5 -564t-479.5 -192zM750 219q161 0 240 122t79 370v32q0 248 -79 370t-240 122q-322 0 -322 -492v-32q0 -492 322 -492z" />
    <glyph glyph-name="Oslash" unicode="&#xd8;" horiz-adv-x="1499" 
d="M348 90l-145 -192l-97 73l154 205q-154 192 -154 551q0 372 164 564t482 192q246 0 399 -119l145 192l97 -73l-154 -205q154 -189 154 -551q0 -372 -163.5 -564t-481.5 -192q-247 0 -400 119zM428 743v-14q0 -159 45 -280l504 681q-77 105 -225 105q-324 0 -324 -492z
M748 219q162 0 241.5 122t79.5 370v14q0 165 -43 281l-506 -682q80 -105 228 -105z" />
    <glyph glyph-name="Ugrave" unicode="&#xd9;" horiz-adv-x="1476" 
d="M852 1561h-221l-269 344h302zM737 -29q-308 0 -453 148t-145 461v874h320v-874q0 -183 66.5 -268t211.5 -85q146 0 213.5 85t67.5 268v874h319v-874q0 -314 -145.5 -461.5t-454.5 -147.5z" />
    <glyph glyph-name="Uacute" unicode="&#xda;" horiz-adv-x="1476" 
d="M838 1561h-222l189 344h301zM737 -29q-308 0 -453 148t-145 461v874h320v-874q0 -183 66.5 -268t211.5 -85q146 0 213.5 85t67.5 268v874h319v-874q0 -314 -145.5 -461.5t-454.5 -147.5z" />
    <glyph glyph-name="Ucircumflex" unicode="&#xdb;" horiz-adv-x="1476" 
d="M586 1561h-211l237 344h252l238 -344h-211l-154 198zM737 -29q-308 0 -453 148t-145 461v874h320v-874q0 -183 66.5 -268t211.5 -85q146 0 213.5 85t67.5 268v874h319v-874q0 -314 -145.5 -461.5t-454.5 -147.5z" />
    <glyph glyph-name="Udieresis" unicode="&#xdc;" horiz-adv-x="1476" 
d="M516 1591q-64 0 -107.5 43.5t-43.5 106.5q0 65 43.5 108t107.5 43q63 0 106.5 -43.5t43.5 -107.5q0 -63 -43.5 -106.5t-106.5 -43.5zM961 1591q-63 0 -106.5 43.5t-43.5 106.5q0 64 43.5 107.5t106.5 43.5q65 0 108 -43t43 -108q0 -63 -43.5 -106.5t-107.5 -43.5z
M737 -29q-308 0 -453 148t-145 461v874h320v-874q0 -183 66.5 -268t211.5 -85q146 0 213.5 85t67.5 268v874h319v-874q0 -314 -145.5 -461.5t-454.5 -147.5z" />
    <glyph glyph-name="Yacute" unicode="&#xdd;" horiz-adv-x="1351" 
d="M774 1561h-221l190 344h301zM836 0h-320v547l-498 907h355l309 -608h4l307 608h340l-497 -907v-547z" />
    <glyph glyph-name="Thorn" unicode="&#xde;" horiz-adv-x="1312" 
d="M463 0h-313v1454h313v-225h217q262 0 399.5 -117t137.5 -340t-132.5 -340t-384.5 -117h-237v-315zM463 993v-452h201q115 0 177 57.5t62 163.5v14q0 106 -64 161.5t-184 55.5h-192z" />
    <glyph glyph-name="germandbls" unicode="&#xdf;" horiz-adv-x="1320" 
d="M770 -12q-96 0 -154 14v213q28 -8 72 -8q112 0 173 55t61 156v8q0 109 -75 168t-231 74v221q98 12 152.5 74t54.5 159v8q0 100 -48 155.5t-134 55.5q-95 0 -145 -72t-50 -210v-1059h-307v1057q0 243 130 373.5t370 130.5q222 0 350.5 -108t128.5 -292q0 -251 -233 -358
v-4q174 -54 258 -154.5t84 -253.5q0 -189 -121.5 -296t-335.5 -107z" />
    <glyph glyph-name="agrave" unicode="&#xe0;" horiz-adv-x="1267" 
d="M776 1212h-221l-268 344h301zM504 -25q-200 0 -307 147.5t-107 426.5q0 277 110.5 431.5t313.5 154.5q223 0 322 -191h4l24 166h264v-1110h-288v180h-4q-102 -205 -332 -205zM610 203q100 0 155.5 72t55.5 204v152q0 131 -55 203.5t-154 72.5q-105 0 -159 -84.5
t-54 -251.5v-32q0 -336 211 -336z" />
    <glyph glyph-name="aacute" unicode="&#xe1;" horiz-adv-x="1267" 
d="M754 1212h-222l191 344h299zM504 -25q-200 0 -307 147.5t-107 426.5q0 277 110.5 431.5t313.5 154.5q223 0 322 -191h4l24 166h264v-1110h-288v180h-4q-102 -205 -332 -205zM610 203q100 0 155.5 72t55.5 204v152q0 131 -55 203.5t-154 72.5q-105 0 -159 -84.5
t-54 -251.5v-32q0 -336 211 -336z" />
    <glyph glyph-name="acircumflex" unicode="&#xe2;" horiz-adv-x="1267" 
d="M504 1212h-213l237 344h252l240 -344h-213l-152 199zM504 -25q-200 0 -307 147.5t-107 426.5q0 277 110.5 431.5t313.5 154.5q223 0 322 -191h4l24 166h264v-1110h-288v180h-4q-102 -205 -332 -205zM610 203q100 0 155.5 72t55.5 204v152q0 131 -55 203.5t-154 72.5
q-105 0 -159 -84.5t-54 -251.5v-32q0 -336 211 -336z" />
    <glyph glyph-name="atilde" unicode="&#xe3;" horiz-adv-x="1267" 
d="M803 1239q-48 0 -96.5 20.5t-80 45t-66 45t-58.5 20.5q-31 0 -50.5 -31.5t-23.5 -91.5h-147q6 137 66 216t161 79q48 0 95.5 -20t79 -44.5t66 -44.5t58.5 -20q64 0 76 123h145q-6 -138 -66 -217.5t-159 -79.5zM504 -25q-200 0 -307 147.5t-107 426.5q0 277 110.5 431.5
t313.5 154.5q223 0 322 -191h4l24 166h264v-1110h-288v180h-4q-102 -205 -332 -205zM610 203q100 0 155.5 72t55.5 204v152q0 131 -55 203.5t-154 72.5q-105 0 -159 -84.5t-54 -251.5v-32q0 -336 211 -336z" />
    <glyph glyph-name="adieresis" unicode="&#xe4;" horiz-adv-x="1267" 
d="M432 1245q-64 0 -107.5 43.5t-43.5 106.5q0 65 43.5 108t107.5 43q63 0 106.5 -43.5t43.5 -107.5q0 -63 -43.5 -106.5t-106.5 -43.5zM877 1245q-63 0 -106.5 43.5t-43.5 106.5q0 64 43.5 107.5t106.5 43.5q65 0 108 -43t43 -108q0 -63 -43.5 -106.5t-107.5 -43.5z
M504 -25q-200 0 -307 147.5t-107 426.5q0 277 110.5 431.5t313.5 154.5q223 0 322 -191h4l24 166h264v-1110h-288v180h-4q-102 -205 -332 -205zM610 203q100 0 155.5 72t55.5 204v152q0 131 -55 203.5t-154 72.5q-105 0 -159 -84.5t-54 -251.5v-32q0 -336 211 -336z" />
    <glyph glyph-name="aring" unicode="&#xe5;" horiz-adv-x="1267" 
d="M655 1200q-104 0 -174.5 68.5t-70.5 169.5t70.5 169t174.5 68q103 0 173.5 -68t70.5 -169t-70.5 -169.5t-173.5 -68.5zM655 1329q44 0 73.5 31t29.5 78t-29.5 77.5t-73.5 30.5q-45 0 -74.5 -30.5t-29.5 -77.5t30 -78t74 -31zM504 -25q-200 0 -307 147.5t-107 426.5
q0 277 110.5 431.5t313.5 154.5q223 0 322 -191h4l24 166h264v-1110h-288v180h-4q-102 -205 -332 -205zM610 203q100 0 155.5 72t55.5 204v152q0 131 -55 203.5t-154 72.5q-105 0 -159 -84.5t-54 -251.5v-32q0 -336 211 -336z" />
    <glyph glyph-name="ae" unicode="&#xe6;" horiz-adv-x="1828" 
d="M1745 551q0 -45 -2 -78h-703q12 -140 91.5 -213.5t218.5 -73.5q155 0 336 76l18 -215q-198 -72 -401 -72q-331 0 -469 197q-116 -197 -379 -197q-178 0 -277.5 88t-99.5 242q0 177 129 274t366 97q81 0 170 -12v41q0 109 -51.5 157.5t-169.5 48.5q-140 0 -329 -71
l-15 231q204 64 400 64q238 0 358 -105q130 105 332 105q235 0 356 -148.5t121 -435.5zM1044 645h406q-3 152 -51.5 223.5t-145.5 71.5q-99 0 -152.5 -74t-56.5 -221zM743 442v78q-70 4 -92 4q-132 0 -201 -47t-69 -135v-4q0 -76 40.5 -117t113.5 -41q96 0 152 71t56 191z
" />
    <glyph glyph-name="ccedilla" unicode="&#xe7;" horiz-adv-x="980" 
d="M881 281l16 -246q-83 -38 -197 -53q62 -95 62 -189q0 -103 -69 -163t-187 -60q-84 0 -146 16v164q46 -12 82 -12q115 0 115 110q0 64 -39 132q-211 23 -319.5 166t-108.5 399q0 281 137 435.5t385 154.5q150 0 271 -48l-21 -251q-98 57 -211 57q-122 0 -187 -85.5
t-65 -246.5v-16q0 -155 65.5 -241.5t182.5 -86.5q113 0 234 64z" />
    <glyph glyph-name="egrave" unicode="&#xe8;" horiz-adv-x="1179" 
d="M727 1212h-221l-268 344h299zM651 -25q-277 0 -419 144t-142 426q0 280 137.5 435t386.5 155q238 0 361 -148t123 -436q0 -49 -2 -78h-703q12 -141 90 -214t215 -73q153 0 338 76l19 -215q-198 -72 -404 -72zM395 645h408q-3 152 -51.5 223.5t-145.5 71.5q-99 0 -153 -74
t-58 -221z" />
    <glyph glyph-name="eacute" unicode="&#xe9;" horiz-adv-x="1179" 
d="M705 1212h-222l189 344h301zM651 -25q-277 0 -419 144t-142 426q0 280 137.5 435t386.5 155q238 0 361 -148t123 -436q0 -49 -2 -78h-703q12 -141 90 -214t215 -73q153 0 338 76l19 -215q-198 -72 -404 -72zM395 645h408q-3 152 -51.5 223.5t-145.5 71.5q-99 0 -153 -74
t-58 -221z" />
    <glyph glyph-name="ecircumflex" unicode="&#xea;" horiz-adv-x="1179" 
d="M453 1212h-211l237 344h252l238 -344h-211l-154 199zM651 -25q-277 0 -419 144t-142 426q0 280 137.5 435t386.5 155q238 0 361 -148t123 -436q0 -49 -2 -78h-703q12 -141 90 -214t215 -73q153 0 338 76l19 -215q-198 -72 -404 -72zM395 645h408q-3 152 -51.5 223.5
t-145.5 71.5q-99 0 -153 -74t-58 -221z" />
    <glyph glyph-name="edieresis" unicode="&#xeb;" horiz-adv-x="1179" 
d="M383 1245q-64 0 -108 43.5t-44 106.5q0 64 43.5 107.5t108.5 43.5q63 0 106 -43.5t43 -107.5q0 -63 -43 -106.5t-106 -43.5zM827 1245q-63 0 -106 43.5t-43 106.5q0 64 43 107.5t106 43.5q65 0 108.5 -43.5t43.5 -107.5q0 -63 -44 -106.5t-108 -43.5zM651 -25
q-277 0 -419 144t-142 426q0 280 137.5 435t386.5 155q238 0 361 -148t123 -436q0 -49 -2 -78h-703q12 -141 90 -214t215 -73q153 0 338 76l19 -215q-198 -72 -404 -72zM395 645h408q-3 152 -51.5 223.5t-145.5 71.5q-99 0 -153 -74t-58 -221z" />
    <glyph glyph-name="igrave" unicode="&#xec;" horiz-adv-x="585" 
d="M416 1212h-221l-269 344h299zM446 0h-307v1110h307v-1110z" />
    <glyph glyph-name="iacute" unicode="&#xed;" horiz-adv-x="585" 
d="M393 1212h-221l188 344h302zM446 0h-307v1110h307v-1110z" />
    <glyph glyph-name="icircumflex" unicode="&#xee;" horiz-adv-x="585" 
d="M141 1212h-213l240 344h250l239 -344h-213l-151 199zM446 0h-307v1110h307v-1110z" />
    <glyph glyph-name="idieresis" unicode="&#xef;" horiz-adv-x="585" 
d="M70 1245q-63 0 -106.5 43.5t-43.5 106.5q0 64 43.5 107.5t106.5 43.5q64 0 107.5 -43t43.5 -108q0 -63 -43.5 -106.5t-107.5 -43.5zM516 1245q-64 0 -107.5 43.5t-43.5 106.5q0 65 43.5 108t107.5 43q63 0 107.5 -43.5t44.5 -107.5q0 -63 -44.5 -106.5t-107.5 -43.5z
M446 0h-307v1110h307v-1110z" />
    <glyph glyph-name="eth" unicode="&#xf0;" horiz-adv-x="1243" 
d="M612 -25q-253 0 -389.5 147.5t-136.5 416.5q0 253 118 402t318 149q142 0 248 -95l4 2q-61 131 -147 236l-314 -78v158l207 51q-89 97 -190 172h340q39 -28 118 -111l265 68v-158l-158 -41q124 -162 189 -348.5t65 -380.5q0 -283 -139.5 -436.5t-397.5 -153.5zM616 193
q224 0 224 331v25q0 332 -224 332q-221 0 -221 -332v-25q0 -331 221 -331z" />
    <glyph glyph-name="ntilde" unicode="&#xf1;" horiz-adv-x="1263" 
d="M780 1239q-48 0 -96.5 20.5t-80 45t-66 45t-58.5 20.5q-64 0 -73 -123h-148q6 137 66 216t161 79q48 0 95.5 -20t79 -44.5t66 -44.5t58.5 -20q67 0 76 123h146q-6 -138 -66 -217.5t-160 -79.5zM446 0h-307v1110h295v-158h4q47 89 135 136t205 47q172 0 262 -103t90 -299
v-733h-307v684q0 207 -172 207q-94 0 -149.5 -59.5t-55.5 -161.5v-670z" />
    <glyph glyph-name="ograve" unicode="&#xf2;" horiz-adv-x="1239" 
d="M741 1212h-221l-268 344h299zM618 -25q-255 0 -391.5 150t-136.5 430t136.5 430t391.5 150q256 0 392.5 -150t136.5 -430q0 -281 -136 -430.5t-393 -149.5zM618 193q220 0 220 346v32q0 347 -220 347q-219 0 -219 -347v-32q0 -346 219 -346z" />
    <glyph glyph-name="oacute" unicode="&#xf3;" horiz-adv-x="1239" 
d="M719 1212h-221l188 344h301zM618 -25q-255 0 -391.5 150t-136.5 430t136.5 430t391.5 150q256 0 392.5 -150t136.5 -430q0 -281 -136 -430.5t-393 -149.5zM618 193q220 0 220 346v32q0 347 -220 347q-219 0 -219 -347v-32q0 -346 219 -346z" />
    <glyph glyph-name="ocircumflex" unicode="&#xf4;" horiz-adv-x="1239" 
d="M467 1212h-211l238 344h251l238 -344h-211l-154 199zM618 -25q-255 0 -391.5 150t-136.5 430t136.5 430t391.5 150q256 0 392.5 -150t136.5 -430q0 -281 -136 -430.5t-393 -149.5zM618 193q220 0 220 346v32q0 347 -220 347q-219 0 -219 -347v-32q0 -346 219 -346z" />
    <glyph glyph-name="otilde" unicode="&#xf5;" horiz-adv-x="1239" 
d="M768 1239q-48 0 -96.5 20.5t-80 45t-66 45t-58.5 20.5q-65 0 -74 -123h-147q6 137 66 216t161 79q48 0 95.5 -20t79 -44.5t66 -44.5t58.5 -20q31 0 50.5 31.5t23.5 91.5h147q-6 -138 -66 -217.5t-159 -79.5zM618 -25q-255 0 -391.5 150t-136.5 430t136.5 430t391.5 150
q256 0 392.5 -150t136.5 -430q0 -281 -136 -430.5t-393 -149.5zM618 193q220 0 220 346v32q0 347 -220 347q-219 0 -219 -347v-32q0 -346 219 -346z" />
    <glyph glyph-name="odieresis" unicode="&#xf6;" horiz-adv-x="1239" 
d="M397 1245q-64 0 -107.5 43.5t-43.5 106.5q0 65 43 108t108 43q63 0 106.5 -43.5t43.5 -107.5q0 -63 -43.5 -106.5t-106.5 -43.5zM842 1245q-63 0 -106.5 43.5t-43.5 106.5q0 64 43.5 107.5t106.5 43.5q64 0 107.5 -43t43.5 -108q0 -63 -43.5 -106.5t-107.5 -43.5z
M618 -25q-255 0 -391.5 150t-136.5 430t136.5 430t391.5 150q256 0 392.5 -150t136.5 -430q0 -281 -136 -430.5t-393 -149.5zM618 193q220 0 220 346v32q0 347 -220 347q-219 0 -219 -347v-32q0 -346 219 -346z" />
    <glyph glyph-name="oslash" unicode="&#xf8;" horiz-adv-x="1239" 
d="M309 57l-121 -157l-94 75l125 160q-129 154 -129 420q0 280 136.5 430t391.5 150q187 0 312 -84l121 159l94 -75l-125 -160q127 -151 127 -420q0 -281 -135.5 -430.5t-390.5 -149.5q-185 0 -312 82zM393 571v-16q0 -101 29 -170l354 467q-54 72 -158 72q-225 0 -225 -353
zM618 186q228 0 228 353v14q0 103 -29 172l-354 -467q54 -72 155 -72z" />
    <glyph glyph-name="ugrave" unicode="&#xf9;" horiz-adv-x="1255" 
d="M750 1212h-222l-268 344h299zM627 -25q-252 0 -373 111t-121 344v680h307v-680q0 -107 46 -159t141 -52t141.5 52t46.5 159v680h307v-680q0 -233 -120.5 -344t-374.5 -111z" />
    <glyph glyph-name="uacute" unicode="&#xfa;" horiz-adv-x="1255" 
d="M727 1212h-221l188 344h301zM627 -25q-252 0 -373 111t-121 344v680h307v-680q0 -107 46 -159t141 -52t141.5 52t46.5 159v680h307v-680q0 -233 -120.5 -344t-374.5 -111z" />
    <glyph glyph-name="ucircumflex" unicode="&#xfb;" horiz-adv-x="1255" 
d="M475 1212h-213l240 344h252l237 -344h-213l-151 199zM627 -25q-252 0 -373 111t-121 344v680h307v-680q0 -107 46 -159t141 -52t141.5 52t46.5 159v680h307v-680q0 -233 -120.5 -344t-374.5 -111z" />
    <glyph glyph-name="udieresis" unicode="&#xfc;" horiz-adv-x="1255" 
d="M406 1245q-64 0 -108 43.5t-44 106.5q0 64 43.5 107.5t108.5 43.5q63 0 106 -43.5t43 -107.5q0 -63 -43 -106.5t-106 -43.5zM850 1245q-63 0 -106.5 43.5t-43.5 106.5q0 64 43.5 107.5t106.5 43.5q64 0 107.5 -43t43.5 -108q0 -63 -43.5 -106.5t-107.5 -43.5zM627 -25
q-252 0 -373 111t-121 344v680h307v-680q0 -107 46 -159t141 -52t141.5 52t46.5 159v680h307v-680q0 -233 -120.5 -344t-374.5 -111z" />
    <glyph glyph-name="yacute" unicode="&#xfd;" horiz-adv-x="1179" 
d="M688 1212h-221l190 344h301zM580 -406h-336l186 467l-405 1049h327l244 -717h4l242 717h313z" />
    <glyph glyph-name="thorn" unicode="&#xfe;" horiz-adv-x="1267" 
d="M446 -406h-307v1942h307v-573h5q105 172 315 172q196 0 304 -150t108 -424q0 -283 -109.5 -434.5t-316.5 -151.5q-199 0 -301 156h-5v-537zM657 203q103 0 157 85t54 251v32q0 336 -209 336q-100 0 -156.5 -73.5t-56.5 -202.5v-154q0 -129 55.5 -201.5t155.5 -72.5z" />
    <glyph glyph-name="ydieresis" unicode="&#xff;" horiz-adv-x="1179" 
d="M367 1245q-63 0 -106.5 43.5t-43.5 106.5q0 64 43.5 107.5t106.5 43.5q65 0 108 -43t43 -108q0 -63 -43.5 -106.5t-107.5 -43.5zM813 1245q-64 0 -107.5 43.5t-43.5 106.5q0 65 43 108t108 43q63 0 106.5 -43.5t43.5 -107.5q0 -63 -43.5 -106.5t-106.5 -43.5zM580 -406
h-336l186 467l-405 1049h327l244 -717h4l242 717h313z" />
    <glyph glyph-name="Amacron" unicode="&#x100;" horiz-adv-x="1396" 
d="M1004 1624h-609v170h609v-170zM338 0h-315l469 1454h413l471 -1454h-332l-92 303h-524zM688 1184l-199 -660h402l-199 660h-4z" />
    <glyph glyph-name="amacron" unicode="&#x101;" horiz-adv-x="1267" 
d="M958 1276h-608v170h608v-170zM504 -25q-200 0 -307 147.5t-107 426.5q0 277 110.5 431.5t313.5 154.5q223 0 322 -191h4l24 166h264v-1110h-288v180h-4q-102 -205 -332 -205zM610 203q100 0 155.5 72t55.5 204v152q0 131 -55 203.5t-154 72.5q-105 0 -159 -84.5
t-54 -251.5v-32q0 -336 211 -336z" />
    <glyph glyph-name="Abreve" unicode="&#x102;" horiz-adv-x="1396" 
d="M698 1569q-172 0 -264.5 83.5t-95.5 241.5h174q1 -75 49.5 -115t136.5 -40t137 40t50 115h174q-1 -158 -95 -241.5t-266 -83.5zM338 0h-315l469 1454h413l471 -1454h-332l-92 303h-524zM688 1184l-199 -660h402l-199 660h-4z" />
    <glyph glyph-name="abreve" unicode="&#x103;" horiz-adv-x="1267" 
d="M655 1219q-172 0 -265.5 84t-94.5 241h174q1 -73 49.5 -113t136.5 -40t137 40t50 113h174q-3 -157 -97 -241t-264 -84zM504 -25q-200 0 -307 147.5t-107 426.5q0 277 110.5 431.5t313.5 154.5q223 0 322 -191h4l24 166h264v-1110h-288v180h-4q-102 -205 -332 -205z
M610 203q100 0 155.5 72t55.5 204v152q0 131 -55 203.5t-154 72.5q-105 0 -159 -84.5t-54 -251.5v-32q0 -336 211 -336z" />
    <glyph glyph-name="Aogonek" unicode="&#x104;" horiz-adv-x="1396" 
d="M1186 -178q0 -84 98 -84q52 0 92 14v-166q-62 -16 -151 -16q-122 0 -187 44.5t-65 129.5q0 63 37.5 130t103.5 126h-70l-92 303h-524l-90 -303h-315l469 1454h413l471 -1454h-94q-96 -99 -96 -178zM688 1184l-199 -660h402l-199 660h-4z" />
    <glyph glyph-name="aogonek" unicode="&#x105;" horiz-adv-x="1267" 
d="M1049 -262q52 0 92 14v-166q-59 -16 -150 -16q-122 0 -187 44.5t-65 129.5q0 63 37 130t103 126h-39v180h-4q-102 -205 -332 -205q-200 0 -307 147.5t-107 426.5q0 277 110.5 431.5t313.5 154.5q223 0 322 -191h4l24 166h264v-1110h-81q-97 -100 -97 -178q0 -84 99 -84z
M821 479v152q0 131 -55 203.5t-154 72.5q-105 0 -159 -84.5t-54 -251.5v-32q0 -336 211 -336q100 0 155.5 72t55.5 204z" />
    <glyph glyph-name="Cacute" unicode="&#x106;" horiz-adv-x="1206" 
d="M825 1561h-221l191 344h299zM733 -29q-310 0 -471.5 189t-161.5 553q0 374 167 572t481 198q193 0 378 -70l-22 -270q-168 84 -316 84q-175 0 -268.5 -127t-93.5 -363v-30q0 -231 94 -355.5t268 -124.5q151 0 336 90l19 -270q-194 -76 -410 -76z" />
    <glyph glyph-name="cacute" unicode="&#x107;" horiz-adv-x="980" 
d="M686 1212h-221l188 344h301zM598 -25q-249 0 -378.5 145t-129.5 425q0 281 137 435.5t385 154.5q150 0 271 -48l-21 -251q-98 57 -211 57q-122 0 -187 -85.5t-65 -246.5v-16q0 -155 65.5 -241.5t182.5 -86.5q113 0 234 64l16 -246q-130 -60 -299 -60z" />
    <glyph glyph-name="Ccircumflex" unicode="&#x108;" horiz-adv-x="1206" 
d="M575 1561h-213l238 344h252l240 -344h-213l-152 198zM733 -29q-310 0 -471.5 189t-161.5 553q0 374 167 572t481 198q193 0 378 -70l-22 -270q-168 84 -316 84q-175 0 -268.5 -127t-93.5 -363v-30q0 -231 94 -355.5t268 -124.5q151 0 336 90l19 -270q-194 -76 -410 -76z
" />
    <glyph glyph-name="ccircumflex" unicode="&#x109;" horiz-adv-x="980" 
d="M434 1212h-211l238 344h252l237 -344h-211l-153 199zM598 -25q-249 0 -378.5 145t-129.5 425q0 281 137 435.5t385 154.5q150 0 271 -48l-21 -251q-98 57 -211 57q-122 0 -187 -85.5t-65 -246.5v-16q0 -155 65.5 -241.5t182.5 -86.5q113 0 234 64l16 -246
q-130 -60 -299 -60z" />
    <glyph glyph-name="Cdotaccent" unicode="&#x10a;" horiz-adv-x="1206" 
d="M731 1589q-66 0 -111 45t-45 111q0 65 45 109t111 44q65 0 110.5 -44.5t45.5 -108.5q0 -66 -45.5 -111t-110.5 -45zM733 -29q-310 0 -471.5 189t-161.5 553q0 374 167 572t481 198q193 0 378 -70l-22 -270q-168 84 -316 84q-175 0 -268.5 -127t-93.5 -363v-30
q0 -231 94 -355.5t268 -124.5q151 0 336 90l19 -270q-194 -76 -410 -76z" />
    <glyph glyph-name="cdotaccent" unicode="&#x10b;" horiz-adv-x="980" 
d="M586 1231q-65 0 -110.5 44.5t-45.5 108.5q0 66 45.5 111t110.5 45q66 0 110.5 -45t44.5 -111q0 -65 -44.5 -109t-110.5 -44zM598 -25q-249 0 -378.5 145t-129.5 425q0 281 137 435.5t385 154.5q150 0 271 -48l-21 -251q-98 57 -211 57q-122 0 -187 -85.5t-65 -246.5v-16
q0 -155 65.5 -241.5t182.5 -86.5q113 0 234 64l16 -246q-130 -60 -299 -60z" />
    <glyph glyph-name="Ccaron" unicode="&#x10c;" horiz-adv-x="1206" 
d="M852 1561h-252l-238 344h213l152 -199l152 199h213zM733 -29q-310 0 -471.5 189t-161.5 553q0 374 167 572t481 198q193 0 378 -70l-22 -270q-168 84 -316 84q-175 0 -268.5 -127t-93.5 -363v-30q0 -231 94 -355.5t268 -124.5q151 0 336 90l19 -270q-194 -76 -410 -76z
" />
    <glyph glyph-name="ccaron" unicode="&#x10d;" horiz-adv-x="980" 
d="M713 1212h-252l-238 344h211l152 -200l153 200h211zM598 -25q-249 0 -378.5 145t-129.5 425q0 281 137 435.5t385 154.5q150 0 271 -48l-21 -251q-98 57 -211 57q-122 0 -187 -85.5t-65 -246.5v-16q0 -155 65.5 -241.5t182.5 -86.5q113 0 234 64l16 -246
q-130 -60 -299 -60z" />
    <glyph glyph-name="Dcaron" unicode="&#x10e;" horiz-adv-x="1439" 
d="M825 1561h-252l-237 344h213l151 -199l152 199h213zM684 0h-534v1454h514q337 0 507 -183t170 -544q0 -358 -166.5 -542.5t-490.5 -184.5zM471 1206v-958h205q346 0 346 463v32q0 463 -352 463h-199z" />
    <glyph glyph-name="dcaron" unicode="&#x10f;" horiz-adv-x="1267" 
d="M1409 1212h-199l127 344h267zM504 -25q-201 0 -307.5 147.5t-106.5 426.5t111.5 432.5t312.5 153.5q205 0 303 -158h4v559h307v-1536h-288v180h-4q-102 -205 -332 -205zM610 203q100 0 155.5 73t55.5 203v152q0 130 -55.5 203t-153.5 73q-105 0 -159 -84.5t-54 -251.5
v-32q0 -336 211 -336z" />
    <glyph glyph-name="Dcroat" unicode="&#x110;" horiz-adv-x="1439" 
d="M684 0h-534v651h-127v174h127v629h514q337 0 507 -183t170 -544q0 -358 -166.5 -542.5t-490.5 -184.5zM471 651v-403h205q346 0 346 463v32q0 463 -352 463h-199v-381h223v-174h-223z" />
    <glyph glyph-name="dcroat" unicode="&#x111;" horiz-adv-x="1267" 
d="M504 -25q-201 0 -307.5 146.5t-106.5 423.5q0 278 111 429.5t313 151.5q205 0 303 -155h4v250h-219v174h219v141h307v-141h105v-174h-105v-1221h-288v180h-4q-102 -205 -332 -205zM610 203q100 0 155.5 71.5t55.5 200.5v154q0 128 -55.5 200t-153.5 72q-105 0 -159 -84.5
t-54 -249.5v-32q0 -332 211 -332z" />
    <glyph glyph-name="Emacron" unicode="&#x112;" horiz-adv-x="1142" 
d="M903 1624h-608v170h608v-170zM1063 0h-913v1454h894v-248h-581v-348h532v-237h-532v-373h600v-248z" />
    <glyph glyph-name="emacron" unicode="&#x113;" horiz-adv-x="1179" 
d="M909 1276h-608v170h608v-170zM651 -25q-277 0 -419 144t-142 426q0 280 137.5 435t386.5 155q238 0 361 -148t123 -436q0 -49 -2 -78h-703q12 -141 90 -214t215 -73q153 0 338 76l19 -215q-198 -72 -404 -72zM395 645h408q-3 152 -51.5 223.5t-145.5 71.5q-99 0 -153 -74
t-58 -221z" />
    <glyph glyph-name="Ebreve" unicode="&#x114;" horiz-adv-x="1142" 
d="M598 1569q-172 0 -264.5 83.5t-95.5 241.5h174q1 -75 49.5 -115t136.5 -40t136.5 40t49.5 115h174q-1 -158 -94.5 -241.5t-265.5 -83.5zM1063 0h-913v1454h894v-248h-581v-348h532v-237h-532v-373h600v-248z" />
    <glyph glyph-name="ebreve" unicode="&#x115;" horiz-adv-x="1179" 
d="M604 1219q-170 0 -263.5 84t-96.5 241h174q3 -74 51 -113.5t135 -39.5q89 0 137.5 39.5t51.5 113.5h172q-1 -157 -95 -241t-266 -84zM651 -25q-277 0 -419 144t-142 426q0 280 137.5 435t386.5 155q238 0 361 -148t123 -436q0 -49 -2 -78h-703q12 -141 90 -214t215 -73
q153 0 338 76l19 -215q-198 -72 -404 -72zM395 645h408q-3 152 -51.5 223.5t-145.5 71.5q-99 0 -153 -74t-58 -221z" />
    <glyph glyph-name="Edotaccent" unicode="&#x116;" horiz-adv-x="1142" 
d="M602 1589q-66 0 -111 45t-45 111q0 65 45 109t111 44t111 -44t45 -109q0 -66 -45 -111t-111 -45zM1063 0h-913v1454h894v-248h-581v-348h532v-237h-532v-373h600v-248z" />
    <glyph glyph-name="edotaccent" unicode="&#x117;" horiz-adv-x="1179" 
d="M604 1231q-65 0 -110 44.5t-45 108.5q0 66 45 111t110 45q66 0 111 -45t45 -111q0 -65 -45 -109t-111 -44zM651 -25q-277 0 -419 144t-142 426q0 280 137.5 435t386.5 155q238 0 361 -148t123 -436q0 -49 -2 -78h-703q12 -141 90 -214t215 -73q153 0 338 76l19 -215
q-198 -72 -404 -72zM395 645h408q-3 152 -51.5 223.5t-145.5 71.5q-99 0 -153 -74t-58 -221z" />
    <glyph glyph-name="Eogonek" unicode="&#x118;" horiz-adv-x="1142" 
d="M911 -430q-122 0 -187 44.5t-65 129.5q0 62 37.5 129.5t104.5 126.5h-651v1454h894v-248h-581v-348h532v-237h-532v-373h600v-248h-94q-97 -100 -97 -178q0 -84 99 -84q52 0 92 14v-166q-62 -16 -152 -16z" />
    <glyph glyph-name="eogonek" unicode="&#x119;" horiz-adv-x="1179" 
d="M1098 551q0 -49 -2 -78h-703q12 -141 90 -214t215 -73q153 0 338 76l19 -215q-77 -50 -124.5 -112.5t-47.5 -116.5q0 -80 100 -80q50 0 90 14v-166q-62 -16 -151 -16q-123 0 -186.5 45t-63.5 131q0 126 133 240q-93 -11 -154 -11q-277 0 -419 144t-142 426
q0 280 137.5 435t386.5 155q238 0 361 -148t123 -436zM395 645h408q-3 152 -51.5 223.5t-145.5 71.5q-99 0 -153 -74t-58 -221z" />
    <glyph glyph-name="Ecaron" unicode="&#x11a;" horiz-adv-x="1142" 
d="M723 1561h-250l-240 344h213l152 -199l152 199h213zM1063 0h-913v1454h894v-248h-581v-348h532v-237h-532v-373h600v-248z" />
    <glyph glyph-name="ecaron" unicode="&#x11b;" horiz-adv-x="1179" 
d="M731 1212h-252l-237 344h211l151 -200l154 200h211zM651 -25q-277 0 -419 144t-142 426q0 280 137.5 435t386.5 155q238 0 361 -148t123 -436q0 -49 -2 -78h-703q12 -141 90 -214t215 -73q153 0 338 76l19 -215q-198 -72 -404 -72zM395 645h408q-3 152 -51.5 223.5
t-145.5 71.5q-99 0 -153 -74t-58 -221z" />
    <glyph glyph-name="Gcircumflex" unicode="&#x11c;" horiz-adv-x="1400" 
d="M942 1561l-151 198l-154 -198h-211l238 344h251l238 -344h-211zM733 588v211h543v-717q-108 -52 -244 -81.5t-268 -29.5q-324 0 -491 187.5t-167 552.5q0 381 177 576.5t520 195.5q222 0 426 -82l-21 -277q-199 103 -379 103q-405 0 -405 -496v-35q0 -491 391 -491
q96 0 172 16v367h-254z" />
    <glyph glyph-name="gcircumflex" unicode="&#x11d;" horiz-adv-x="1267" 
d="M492 1212h-213l239 344h250l240 -344h-213l-152 199zM567 -430q-213 0 -420 70l17 221q195 -76 354 -76q154 0 228.5 73t74.5 224v100h-4q-105 -166 -315 -166q-198 0 -305 142t-107 407q0 266 111.5 418t310.5 152q222 0 324 -185h4l22 160h266v-1020
q0 -261 -139.5 -390.5t-421.5 -129.5zM610 240q100 0 155.5 71.5t55.5 200.5v125q0 129 -54.5 200.5t-154.5 71.5q-105 0 -159 -80.5t-54 -238.5v-31q0 -319 211 -319z" />
    <glyph glyph-name="Gbreve" unicode="&#x11e;" horiz-adv-x="1400" 
d="M791 1569q-172 0 -266 83.5t-95 241.5h172q3 -75 51.5 -115t137.5 -40q88 0 135.5 40t50.5 115h174q-3 -158 -96 -241.5t-264 -83.5zM733 588v211h543v-717q-108 -52 -244 -81.5t-268 -29.5q-324 0 -491 187.5t-167 552.5q0 381 177 576.5t520 195.5q222 0 426 -82
l-21 -277q-199 103 -379 103q-405 0 -405 -496v-35q0 -491 391 -491q96 0 172 16v367h-254z" />
    <glyph glyph-name="gbreve" unicode="&#x11f;" horiz-adv-x="1267" 
d="M643 1219q-171 0 -264 84t-96 241h174q1 -73 49.5 -113t136.5 -40t136.5 40t49.5 113h175q-1 -157 -95 -241t-266 -84zM567 -430q-213 0 -420 70l17 221q195 -76 354 -76q154 0 228.5 73t74.5 224v100h-4q-105 -166 -315 -166q-198 0 -305 142t-107 407q0 266 111.5 418
t310.5 152q222 0 324 -185h4l22 160h266v-1020q0 -261 -139.5 -390.5t-421.5 -129.5zM610 240q100 0 155.5 71.5t55.5 200.5v125q0 129 -54.5 200.5t-154.5 71.5q-105 0 -159 -80.5t-54 -238.5v-31q0 -319 211 -319z" />
    <glyph glyph-name="Gdotaccent" unicode="&#x120;" horiz-adv-x="1400" 
d="M793 1589q-65 0 -110.5 45t-45.5 111q0 64 45.5 108.5t110.5 44.5q66 0 110.5 -44t44.5 -109q0 -66 -44.5 -111t-110.5 -45zM733 588v211h543v-717q-108 -52 -244 -81.5t-268 -29.5q-324 0 -491 187.5t-167 552.5q0 381 177 576.5t520 195.5q222 0 426 -82l-21 -277
q-199 103 -379 103q-405 0 -405 -496v-35q0 -491 391 -491q96 0 172 16v367h-254z" />
    <glyph glyph-name="gdotaccent" unicode="&#x121;" horiz-adv-x="1267" 
d="M643 1231q-66 0 -111 44t-45 109q0 66 45 111t111 45t111 -45t45 -111q0 -65 -45 -109t-111 -44zM567 -430q-213 0 -420 70l17 221q195 -76 354 -76q154 0 228.5 73t74.5 224v100h-4q-105 -166 -315 -166q-198 0 -305 142t-107 407q0 266 111.5 418t310.5 152
q222 0 324 -185h4l22 160h266v-1020q0 -261 -139.5 -390.5t-421.5 -129.5zM610 240q100 0 155.5 71.5t55.5 200.5v125q0 129 -54.5 200.5t-154.5 71.5q-105 0 -159 -80.5t-54 -238.5v-31q0 -319 211 -319z" />
    <glyph glyph-name="uni0122" unicode="&#x122;" horiz-adv-x="1400" 
d="M733 588v211h543v-717q-108 -52 -244 -81.5t-268 -29.5q-324 0 -491 187.5t-167 552.5q0 381 177 576.5t520 195.5q222 0 426 -82l-21 -277q-199 103 -379 103q-405 0 -405 -496v-35q0 -491 391 -491q96 0 172 16v367h-254zM616 -446h-221l191 344h299z" />
    <glyph glyph-name="uni0123" unicode="&#x123;" horiz-adv-x="1267" 
d="M752 1212h-269l195 344h199zM567 -430q-213 0 -420 70l17 221q195 -76 354 -76q154 0 228.5 73t74.5 224v100h-4q-105 -166 -315 -166q-198 0 -305 142t-107 407q0 266 111.5 418t310.5 152q222 0 324 -185h4l22 160h266v-1020q0 -261 -139.5 -390.5t-421.5 -129.5z
M610 240q100 0 155.5 71.5t55.5 200.5v125q0 129 -54.5 200.5t-154.5 71.5q-105 0 -159 -80.5t-54 -238.5v-31q0 -319 211 -319z" />
    <glyph glyph-name="Hcircumflex" unicode="&#x124;" horiz-adv-x="1452" 
d="M573 1561h-211l238 344h252l238 -344h-211l-154 198zM469 0h-319v1454h319v-575h514v575h320v-1454h-320v614h-514v-614z" />
    <glyph glyph-name="hcircumflex" unicode="&#x125;" horiz-adv-x="1263" 
d="M483 1602h-213l240 344h250l239 -344h-213l-151 198zM446 0h-307v1536h307v-561h5q51 77 136 118.5t193 41.5q170 0 260 -103t90 -299v-733h-307v684q0 207 -172 207q-94 0 -149.5 -59.5t-55.5 -161.5v-670z" />
    <glyph glyph-name="Hbar" unicode="&#x126;" horiz-adv-x="1452" 
d="M469 0h-319v1083h-127v174h127v197h319v-197h514v197h320v-197h124v-174h-124v-1083h-320v614h-514v-614zM469 1083v-211h514v211h-514z" />
    <glyph glyph-name="hbar" unicode="&#x127;" horiz-adv-x="1263" 
d="M446 0h-307v1229h-104v174h104v133h307v-133h220v-174h-220v-254h5q51 77 136 118.5t193 41.5q170 0 260 -103t90 -299v-733h-307v684q0 207 -172 207q-94 0 -149.5 -59.5t-55.5 -161.5v-670z" />
    <glyph glyph-name="Itilde" unicode="&#x128;" horiz-adv-x="618" 
d="M457 1589q-48 0 -95.5 20t-79 44.5t-66 44.5t-58.5 20q-67 0 -76 -123h-145q6 138 65.5 216.5t159.5 78.5q48 0 96.5 -20t80 -44.5t65.5 -44.5t57 -20q67 0 76 123h147q-6 -138 -66.5 -216.5t-160.5 -78.5zM469 0h-319v1454h319v-1454z" />
    <glyph glyph-name="itilde" unicode="&#x129;" horiz-adv-x="585" 
d="M442 1239q-48 0 -96.5 20.5t-80 45t-66 45t-58.5 20.5q-66 0 -75 -123h-146q6 137 66 216t159 79q48 0 96.5 -20t80 -44.5t66 -44.5t58.5 -20q31 0 50.5 31.5t23.5 91.5h148q-6 -138 -66 -217.5t-160 -79.5zM446 0h-307v1110h307v-1110z" />
    <glyph glyph-name="Imacron" unicode="&#x12a;" horiz-adv-x="618" 
d="M612 1624h-606v170h606v-170zM469 0h-319v1454h319v-1454z" />
    <glyph glyph-name="imacron" unicode="&#x12b;" horiz-adv-x="585" 
d="M598 1276h-608v170h608v-170zM446 0h-307v1110h307v-1110z" />
    <glyph glyph-name="Ibreve" unicode="&#x12c;" horiz-adv-x="618" 
d="M309 1569q-172 0 -264.5 83.5t-95.5 241.5h174q1 -75 49.5 -115t136.5 -40t137 40t50 115h174q-1 -158 -95 -241.5t-266 -83.5zM469 0h-319v1454h319v-1454z" />
    <glyph glyph-name="ibreve" unicode="&#x12d;" horiz-adv-x="585" 
d="M293 1219q-172 0 -265 84t-96 241h174q1 -73 50 -113t137 -40t136.5 40t49.5 113h174q-1 -157 -94.5 -241t-265.5 -84zM446 0h-307v1110h307v-1110z" />
    <glyph glyph-name="Iogonek" unicode="&#x12e;" horiz-adv-x="618" 
d="M469 1454v-1454h-94q-96 -99 -96 -178q0 -84 98 -84q52 0 92 14v-166q-59 -16 -150 -16q-123 0 -187 44.5t-64 129.5q0 101 86 207l-4 -2v1505h319z" />
    <glyph glyph-name="iogonek" unicode="&#x12f;" horiz-adv-x="585" 
d="M293 1241q-75 0 -126.5 48.5t-51.5 119.5t51.5 119.5t126.5 48.5t126.5 -48.5t51.5 -119.5t-51.5 -119.5t-126.5 -48.5zM268 -178q0 -84 99 -84q52 0 92 14v-166q-59 -16 -150 -16q-122 0 -187 44.5t-65 129.5q0 63 37 130t103 126h-58v1110h307v-1110h-81
q-97 -104 -97 -178z" />
    <glyph glyph-name="Idotaccent" unicode="&#x130;" horiz-adv-x="618" 
d="M313 1589q-66 0 -110.5 45t-44.5 111q0 65 44.5 109t110.5 44t111 -44t45 -109q0 -66 -45 -111t-111 -45zM469 0h-319v1454h319v-1454z" />
    <glyph glyph-name="dotlessi" unicode="&#x131;" horiz-adv-x="585" 
d="M446 0h-307v1110h307v-1110z" />
    <glyph glyph-name="Jcircumflex" unicode="&#x134;" horiz-adv-x="808" 
d="M356 1561h-211l238 344h252l239 -344h-212l-152 198zM248 -29q-84 0 -201 21v239q82 -12 117 -12q100 0 143 48.5t43 160.5v1026h320v-1059q0 -224 -99.5 -324t-322.5 -100z" />
    <glyph glyph-name="jcircumflex" unicode="&#x135;" horiz-adv-x="585" 
d="M141 1212h-213l240 344h250l239 -344h-213l-151 199zM94 -430q-78 0 -166 10v209q20 -4 76 -4q73 0 104 30.5t31 102.5v1192h307v-1192q0 -186 -82 -267t-270 -81z" />
    <glyph glyph-name="uni0136" unicode="&#x136;" horiz-adv-x="1363" 
d="M467 0h-317v1454h317v-635h6l471 635h356l-540 -706l565 -748h-373l-479 655h-6v-655zM606 -446h-221l188 344h301z" />
    <glyph glyph-name="uni0137" unicode="&#x137;" horiz-adv-x="1173" 
d="M446 0h-307v1536h307v-903h5l342 477h340l-406 -535l430 -575h-358l-348 489h-5v-489zM518 -446h-221l190 344h299z" />
    <glyph glyph-name="Lacute" unicode="&#x139;" horiz-adv-x="1052" 
d="M410 1561h-222l191 344h299zM1010 0h-860v1454h321v-1190h539v-264z" />
    <glyph glyph-name="lacute" unicode="&#x13a;" horiz-adv-x="585" 
d="M391 1602h-221l190 344h302zM446 0h-307v1536h307v-1536z" />
    <glyph glyph-name="uni013B" unicode="&#x13b;" horiz-adv-x="1052" 
d="M1010 0h-860v1454h321v-1190h539v-264zM467 -446h-221l190 344h301z" />
    <glyph glyph-name="uni013C" unicode="&#x13c;" horiz-adv-x="585" 
d="M446 0h-307v1536h307v-1536zM166 -446h-221l188 344h301z" />
    <glyph glyph-name="Lcaron" unicode="&#x13d;" horiz-adv-x="1052" 
d="M793 1192h-199l127 344h266zM1010 0h-860v1454h321v-1190h539v-264z" />
    <glyph glyph-name="lcaron" unicode="&#x13e;" horiz-adv-x="585" 
d="M727 1212h-199l127 344h269zM446 0h-307v1536h307v-1536z" />
    <glyph glyph-name="Ldot" unicode="&#x13f;" horiz-adv-x="1093" 
d="M1010 0h-860v1454h321v-1190h539v-264zM823 684q-73 0 -123.5 50t-50.5 124q0 75 50 124.5t124 49.5q75 0 125.5 -49.5t50.5 -124.5q0 -74 -50.5 -124t-125.5 -50z" />
    <glyph glyph-name="ldot" unicode="&#x140;" horiz-adv-x="792" 
d="M446 0h-307v1536h307v-1536zM688 702q-66 0 -111 44.5t-45 109.5q0 66 45 110t111 44t111 -44t45 -110q0 -65 -45 -109.5t-111 -44.5z" />
    <glyph glyph-name="Lslash" unicode="&#x141;" horiz-adv-x="1052" 
d="M1010 0h-860v684l-127 -53v176l127 55v592h321v-465l242 105v-176l-242 -107v-547h539v-264z" />
    <glyph glyph-name="lslash" unicode="&#x142;" horiz-adv-x="612" 
d="M459 0h-307v733l-111 -63v188l111 64v614h307v-453l112 66v-188l-112 -66v-895z" />
    <glyph glyph-name="Nacute" unicode="&#x143;" horiz-adv-x="1507" 
d="M852 1561h-221l190 344h301zM453 0h-303v1454h335l566 -940h4v940h303v-1454h-303l-598 995h-4v-995z" />
    <glyph glyph-name="nacute" unicode="&#x144;" horiz-adv-x="1263" 
d="M731 1212h-221l190 344h299zM446 0h-307v1110h295v-158h4q47 89 135 136t205 47q172 0 262 -103t90 -299v-733h-307v684q0 207 -172 207q-94 0 -149.5 -59.5t-55.5 -161.5v-670z" />
    <glyph glyph-name="uni0145" unicode="&#x145;" horiz-adv-x="1507" 
d="M453 0h-303v1454h335l566 -940h4v940h303v-1454h-303l-598 995h-4v-995zM676 -446h-221l190 344h301z" />
    <glyph glyph-name="uni0146" unicode="&#x146;" horiz-adv-x="1263" 
d="M446 0h-307v1110h295v-158h4q47 89 135 136t205 47q172 0 262 -103t90 -299v-733h-307v684q0 207 -172 207q-94 0 -149.5 -59.5t-55.5 -161.5v-670zM555 -446h-221l190 344h299z" />
    <glyph glyph-name="Ncaron" unicode="&#x147;" horiz-adv-x="1507" 
d="M879 1561h-250l-240 344h213l152 -199l151 199h213zM453 0h-303v1454h335l566 -940h4v940h303v-1454h-303l-598 995h-4v-995z" />
    <glyph glyph-name="ncaron" unicode="&#x148;" horiz-adv-x="1263" 
d="M758 1212h-252l-238 344h213l152 -200l151 200h213zM446 0h-307v1110h295v-158h4q47 89 135 136t205 47q172 0 262 -103t90 -299v-733h-307v684q0 207 -172 207q-94 0 -149.5 -59.5t-55.5 -161.5v-670z" />
    <glyph glyph-name="Eng" unicode="&#x14a;" horiz-adv-x="1507" 
d="M1055 514v940h303v-1460q0 -224 -99.5 -324t-322.5 -100q-90 0 -201 20v240q82 -12 115 -12q102 0 142 47t42 162l-577 968h-4v-995h-303v1454h335l566 -940h4z" />
    <glyph glyph-name="eng" unicode="&#x14b;" horiz-adv-x="1263" 
d="M776 -430q-79 0 -164 10v209q20 -4 76 -4q72 0 103.5 30.5t31.5 102.5v766q0 207 -172 207q-94 0 -149.5 -59.5t-55.5 -161.5v-670h-307v1110h295v-158h4q47 89 135 136t205 47q172 0 262 -103t90 -299v-815q0 -186 -82.5 -267t-271.5 -81z" />
    <glyph glyph-name="Omacron" unicode="&#x14c;" horiz-adv-x="1499" 
d="M1053 1624h-609v170h609v-170zM750 -29q-317 0 -480.5 192t-163.5 564t163.5 564t480.5 192q316 0 479.5 -192t163.5 -564t-163.5 -564t-479.5 -192zM750 219q161 0 240 122t79 370v32q0 248 -79 370t-240 122q-322 0 -322 -492v-32q0 -492 322 -492z" />
    <glyph glyph-name="omacron" unicode="&#x14d;" horiz-adv-x="1239" 
d="M924 1276h-609v170h609v-170zM618 -25q-255 0 -391.5 150t-136.5 430t136.5 430t391.5 150q256 0 392.5 -150t136.5 -430q0 -281 -136 -430.5t-393 -149.5zM618 193q220 0 220 346v32q0 347 -220 347q-219 0 -219 -347v-32q0 -346 219 -346z" />
    <glyph glyph-name="Obreve" unicode="&#x14e;" horiz-adv-x="1499" 
d="M750 1569q-172 0 -266 83.5t-95 241.5h174q1 -75 50 -115t137 -40t136.5 40t49.5 115h174q-3 -158 -95.5 -241.5t-264.5 -83.5zM750 -29q-317 0 -480.5 192t-163.5 564t163.5 564t480.5 192q316 0 479.5 -192t163.5 -564t-163.5 -564t-479.5 -192zM750 219q161 0 240 122
t79 370v32q0 248 -79 370t-240 122q-322 0 -322 -492v-32q0 -492 322 -492z" />
    <glyph glyph-name="obreve" unicode="&#x14f;" horiz-adv-x="1239" 
d="M618 1219q-170 0 -263.5 84t-96.5 241h174q3 -74 51 -113.5t135 -39.5q89 0 137.5 39.5t51.5 113.5h172q-1 -157 -95 -241t-266 -84zM618 -25q-255 0 -391.5 150t-136.5 430t136.5 430t391.5 150q256 0 392.5 -150t136.5 -430q0 -281 -136 -430.5t-393 -149.5zM618 193
q220 0 220 346v32q0 347 -220 347q-219 0 -219 -347v-32q0 -346 219 -346z" />
    <glyph glyph-name="Ohungarumlaut" unicode="&#x150;" horiz-adv-x="1499" 
d="M645 1561h-209l193 344h284zM1030 1561h-209l213 344h285zM750 -29q-317 0 -480.5 192t-163.5 564t163.5 564t480.5 192q316 0 479.5 -192t163.5 -564t-163.5 -564t-479.5 -192zM750 219q161 0 240 122t79 370v32q0 248 -79 370t-240 122q-322 0 -322 -492v-32
q0 -492 322 -492z" />
    <glyph glyph-name="ohungarumlaut" unicode="&#x151;" horiz-adv-x="1239" 
d="M528 1212h-206l192 344h285zM915 1212h-208l213 344h284zM618 -25q-255 0 -391.5 150t-136.5 430t136.5 430t391.5 150q256 0 392.5 -150t136.5 -430q0 -281 -136 -430.5t-393 -149.5zM618 193q220 0 220 346v32q0 347 -220 347q-219 0 -219 -347v-32q0 -346 219 -346z
" />
    <glyph glyph-name="OE" unicode="&#x152;" horiz-adv-x="2027" 
d="M655 -29q-264 0 -406.5 196.5t-142.5 559.5q0 364 143.5 560t409.5 196q251 0 383 -187h5v158h880v-248h-579v-348h532v-237h-532v-373h598v-248h-899v164h-5q-132 -193 -387 -193zM731 219q303 0 303 492v32q0 492 -303 492q-152 0 -226.5 -122t-74.5 -370v-32
q0 -248 74.5 -370t226.5 -122z" />
    <glyph glyph-name="oe" unicode="&#x153;" horiz-adv-x="1927" 
d="M1845 551q0 -45 -2 -78h-702q12 -140 90.5 -213.5t218.5 -73.5q153 0 334 76l18 -215q-198 -72 -403 -72q-271 0 -406 138q-138 -138 -375 -138q-255 0 -391.5 150t-136.5 430t136.5 430t391.5 150q243 0 377 -140q134 140 363 140q242 0 364.5 -148t122.5 -436z
M1143 645h407q-3 152 -51 223.5t-145 71.5q-99 0 -153 -74t-58 -221zM838 539v32q0 347 -220 347q-219 0 -219 -347v-32q0 -346 219 -346q220 0 220 346z" />
    <glyph glyph-name="Racute" unicode="&#x154;" horiz-adv-x="1327" 
d="M762 1561h-221l190 344h301zM463 0h-313v1454h532q264 0 401.5 -104t137.5 -303q0 -303 -301 -383v-5q76 -25 121.5 -75t80.5 -148l160 -436h-336l-139 420q-29 85 -84.5 120t-161.5 35h-98v-575zM463 1219v-431h209q113 0 174 53.5t61 153.5v15q0 101 -62.5 155
t-180.5 54h-201z" />
    <glyph glyph-name="racute" unicode="&#x155;" horiz-adv-x="833" 
d="M557 1212h-221l190 344h299zM446 0h-307v1110h295v-195h6q32 106 105.5 163t179.5 57q11 0 68 -5v-264q-41 8 -97 8q-123 0 -186.5 -71t-63.5 -209v-594z" />
    <glyph glyph-name="uni0156" unicode="&#x156;" horiz-adv-x="1327" 
d="M463 0h-313v1454h532q264 0 401.5 -104t137.5 -303q0 -303 -301 -383v-5q76 -25 121.5 -75t80.5 -148l160 -436h-336l-139 420q-29 85 -84.5 120t-161.5 35h-98v-575zM463 1219v-431h209q113 0 174 53.5t61 153.5v15q0 101 -62.5 155t-180.5 54h-201zM586 -446h-221
l190 344h301z" />
    <glyph glyph-name="uni0157" unicode="&#x157;" horiz-adv-x="833" 
d="M446 0h-307v1110h295v-195h6q32 106 105.5 163t179.5 57q11 0 68 -5v-264q-41 8 -97 8q-123 0 -186.5 -71t-63.5 -209v-594zM168 -446h-221l190 344h301z" />
    <glyph glyph-name="Rcaron" unicode="&#x158;" horiz-adv-x="1327" 
d="M788 1561h-249l-240 344h213l152 -199l151 199h213zM463 0h-313v1454h532q264 0 401.5 -104t137.5 -303q0 -303 -301 -383v-5q76 -25 121.5 -75t80.5 -148l160 -436h-336l-139 420q-29 85 -84.5 120t-161.5 35h-98v-575zM463 1219v-431h209q113 0 174 53.5t61 153.5v15
q0 101 -62.5 155t-180.5 54h-201z" />
    <glyph glyph-name="rcaron" unicode="&#x159;" horiz-adv-x="833" 
d="M588 1212h-250l-240 344h213l152 -200l151 200h213zM446 0h-307v1110h295v-195h6q32 106 105.5 163t179.5 57q11 0 68 -5v-264q-41 8 -97 8q-123 0 -186.5 -71t-63.5 -209v-594z" />
    <glyph glyph-name="Sacute" unicode="&#x15a;" horiz-adv-x="1155" 
d="M676 1561h-221l190 344h299zM516 -29q-203 0 -420 82l19 275q213 -109 383 -109q109 0 171 47.5t62 130.5v4q0 43 -19 78t-59 62.5t-76 45.5t-96 42q-39 16 -59.5 24.5t-58.5 26t-59.5 30.5t-53.5 35t-50.5 42.5t-40.5 49.5t-33.5 60t-19.5 70t-8 82q0 198 139 316
t371 118q182 0 373 -70l-18 -270q-198 92 -332 92q-97 0 -154 -43t-57 -115v-6q0 -38 17 -68t55 -55t71.5 -40.5t93.5 -39.5h1l1 -1h1l1 -1h1h1l1 -1h1l1 -1q153 -61 220 -109q166 -118 167 -327q0 -210 -145.5 -333.5t-391.5 -123.5z" />
    <glyph glyph-name="sacute" unicode="&#x15b;" horiz-adv-x="980" 
d="M590 1212h-221l190 344h299zM446 -25q-199 0 -366 66l14 231q188 -82 338 -82q82 0 127 30.5t45 84.5v6q0 28 -14 50t-44 39.5t-58 29t-76 27.5q-35 12 -49 16.5t-49 18t-51.5 23t-46 27t-45 33.5t-36 40.5t-30.5 50.5t-17.5 59.5t-7.5 71.5q0 158 115 248t315 90
q160 0 330 -56l-19 -227q-168 68 -289 68q-72 0 -111.5 -27.5t-39.5 -77.5v-6q0 -18 5.5 -33.5t21.5 -29t27.5 -22t40 -20.5t41.5 -16.5t50 -17.5q36 -11 51 -16.5t50 -18.5t52.5 -22t47 -26.5t45.5 -33.5t36.5 -40t30.5 -50t17.5 -59.5t7.5 -71.5q0 -164 -123.5 -260.5
t-335.5 -96.5z" />
    <glyph glyph-name="Scircumflex" unicode="&#x15c;" horiz-adv-x="1155" 
d="M426 1561h-213l240 344h249l240 -344h-213l-151 198zM516 -29q-203 0 -420 82l19 275q213 -109 383 -109q109 0 171 47.5t62 130.5v4q0 43 -19 78t-59 62.5t-76 45.5t-96 42q-39 16 -59.5 24.5t-58.5 26t-59.5 30.5t-53.5 35t-50.5 42.5t-40.5 49.5t-33.5 60t-19.5 70
t-8 82q0 198 139 316t371 118q182 0 373 -70l-18 -270q-198 92 -332 92q-97 0 -154 -43t-57 -115v-6q0 -38 17 -68t55 -55t71.5 -40.5t93.5 -39.5h1l1 -1h1l1 -1h1h1l1 -1h1l1 -1q153 -61 220 -109q166 -118 167 -327q0 -210 -145.5 -333.5t-391.5 -123.5z" />
    <glyph glyph-name="scircumflex" unicode="&#x15d;" horiz-adv-x="980" 
d="M340 1212h-213l238 344h251l240 -344h-213l-151 199zM446 -25q-199 0 -366 66l14 231q188 -82 338 -82q82 0 127 30.5t45 84.5v6q0 28 -14 50t-44 39.5t-58 29t-76 27.5q-35 12 -49 16.5t-49 18t-51.5 23t-46 27t-45 33.5t-36 40.5t-30.5 50.5t-17.5 59.5t-7.5 71.5
q0 158 115 248t315 90q160 0 330 -56l-19 -227q-168 68 -289 68q-72 0 -111.5 -27.5t-39.5 -77.5v-6q0 -18 5.5 -33.5t21.5 -29t27.5 -22t40 -20.5t41.5 -16.5t50 -17.5q36 -11 51 -16.5t50 -18.5t52.5 -22t47 -26.5t45.5 -33.5t36.5 -40t30.5 -50t17.5 -59.5t7.5 -71.5
q0 -164 -123.5 -260.5t-335.5 -96.5z" />
    <glyph glyph-name="Scedilla" unicode="&#x15e;" horiz-adv-x="1155" 
d="M1053 428q0 -172 -99.5 -287.5t-275.5 -152.5q65 -100 65 -195q0 -103 -69 -163t-187 -60q-83 0 -145 16v164q46 -12 82 -12q115 0 115 110q0 63 -35 123q-197 3 -408 82l19 275q213 -109 383 -109q109 0 171 47.5t62 130.5v4q0 43 -19 78t-59 62.5t-76 45.5t-96 42
q-39 16 -59.5 24.5t-58.5 26t-59.5 30.5t-53.5 35t-50.5 42.5t-40.5 49.5t-33.5 60t-19.5 70t-8 82q0 198 139 316t371 118q182 0 373 -70l-18 -270q-198 92 -332 92q-97 0 -154 -43t-57 -115v-6q0 -38 17 -68t55 -55t71.5 -40.5t93.5 -39.5h1l1 -1h1l1 -1h1h1l1 -1h1l1 -1
q153 -61 220 -109q166 -118 167 -327z" />
    <glyph glyph-name="scedilla" unicode="&#x15f;" horiz-adv-x="980" 
d="M905 332q0 -133 -82 -223t-229 -119q65 -100 65 -197q0 -103 -68 -163t-188 -60q-83 0 -145 16v164q46 -12 82 -12q115 0 115 110q0 60 -37 127q-183 6 -338 66l14 231q188 -82 338 -82q82 0 127 30.5t45 84.5v6q0 28 -14 50t-44 39.5t-58 29t-76 27.5q-35 12 -49 16.5
t-49 18t-51.5 23t-46 27t-45 33.5t-36 40.5t-30.5 50.5t-17.5 59.5t-7.5 71.5q0 158 115 248t315 90q160 0 330 -56l-19 -227q-168 68 -289 68q-72 0 -111.5 -27.5t-39.5 -77.5v-6q0 -18 5.5 -33.5t21.5 -29t27.5 -22t40 -20.5t41.5 -16.5t50 -17.5q36 -11 51 -16.5
t50 -18.5t52.5 -22t47 -26.5t45.5 -33.5t36.5 -40t30.5 -50t17.5 -59.5t7.5 -71.5z" />
    <glyph glyph-name="Scaron" unicode="&#x160;" horiz-adv-x="1155" 
d="M702 1561h-249l-240 344h213l152 -199l151 199h213zM516 -29q-203 0 -420 82l19 275q213 -109 383 -109q109 0 171 47.5t62 130.5v4q0 43 -19 78t-59 62.5t-76 45.5t-96 42q-39 16 -59.5 24.5t-58.5 26t-59.5 30.5t-53.5 35t-50.5 42.5t-40.5 49.5t-33.5 60t-19.5 70
t-8 82q0 198 139 316t371 118q182 0 373 -70l-18 -270q-198 92 -332 92q-97 0 -154 -43t-57 -115v-6q0 -38 17 -68t55 -55t71.5 -40.5t93.5 -39.5h1l1 -1h1l1 -1h1h1l1 -1h1l1 -1q153 -61 220 -109q166 -118 167 -327q0 -210 -145.5 -333.5t-391.5 -123.5z" />
    <glyph glyph-name="scaron" unicode="&#x161;" horiz-adv-x="980" 
d="M616 1212h-251l-238 344h213l152 -200l151 200h213zM446 -25q-199 0 -366 66l14 231q188 -82 338 -82q82 0 127 30.5t45 84.5v6q0 28 -14 50t-44 39.5t-58 29t-76 27.5q-35 12 -49 16.5t-49 18t-51.5 23t-46 27t-45 33.5t-36 40.5t-30.5 50.5t-17.5 59.5t-7.5 71.5
q0 158 115 248t315 90q160 0 330 -56l-19 -227q-168 68 -289 68q-72 0 -111.5 -27.5t-39.5 -77.5v-6q0 -18 5.5 -33.5t21.5 -29t27.5 -22t40 -20.5t41.5 -16.5t50 -17.5q36 -11 51 -16.5t50 -18.5t52.5 -22t47 -26.5t45.5 -33.5t36.5 -40t30.5 -50t17.5 -59.5t7.5 -71.5
q0 -164 -123.5 -260.5t-335.5 -96.5z" />
    <glyph glyph-name="uni0162" unicode="&#x162;" horiz-adv-x="1124" 
d="M1092 1194h-371v-1194h-66q74 -103 74 -207q0 -103 -68 -163t-188 -60q-83 0 -145 16v164q46 -12 82 -12q114 0 114 110q0 72 -51 152h-72v1194h-370v260h1061v-260z" />
    <glyph glyph-name="uni0163" unicode="&#x163;" horiz-adv-x="823" 
d="M766 1110v-223h-250v-502q0 -82 32.5 -121t102.5 -39q56 0 115 19v-238q-92 -23 -168 -29q59 -92 59 -184q0 -103 -68 -163t-188 -60q-83 0 -145 16v164q46 -12 82 -12q115 0 115 110q0 71 -47 146q-197 62 -197 332v561h-168v223h168v274l307 35v-309h250z" />
    <glyph glyph-name="Tcaron" unicode="&#x164;" horiz-adv-x="1124" 
d="M688 1561h-252l-239 344h213l151 -199l154 199h211zM721 0h-320v1194h-370v260h1061v-260h-371v-1194z" />
    <glyph glyph-name="tcaron" unicode="&#x165;" horiz-adv-x="823" 
d="M797 1212h-199l127 344h266zM541 -25q-167 0 -249.5 87t-82.5 264v561h-168v223h168v274l307 35v-309h250v-223h-250v-502q0 -82 32.5 -121t102.5 -39q56 0 115 19v-238q-127 -31 -225 -31z" />
    <glyph glyph-name="Tbar" unicode="&#x166;" horiz-adv-x="1124" 
d="M721 0h-320v727h-192v174h192v293h-370v260h1061v-260h-371v-293h194v-174h-194v-727z" />
    <glyph glyph-name="tbar" unicode="&#x167;" horiz-adv-x="823" 
d="M766 1110v-223h-250v-195h174v-174h-174v-133q0 -82 32.5 -121t102.5 -39q56 0 115 19v-238q-127 -31 -225 -31q-167 0 -249.5 87t-82.5 264v192h-139v174h139v195h-168v223h168v274l307 35v-309h250z" />
    <glyph glyph-name="Utilde" unicode="&#x168;" horiz-adv-x="1476" 
d="M885 1589q-48 0 -95.5 20t-79 44.5t-66 44.5t-58.5 20q-65 0 -74 -123h-147q6 138 65.5 216.5t159.5 78.5q48 0 96.5 -20t80 -44.5t66 -44.5t58.5 -20q65 0 74 123h147q-6 -138 -66 -216.5t-161 -78.5zM737 -29q-308 0 -453 148t-145 461v874h320v-874q0 -183 66.5 -268
t211.5 -85q146 0 213.5 85t67.5 268v874h319v-874q0 -314 -145.5 -461.5t-454.5 -147.5z" />
    <glyph glyph-name="utilde" unicode="&#x169;" horiz-adv-x="1255" 
d="M776 1239q-48 0 -96.5 20.5t-80 45t-66 45t-58.5 20.5q-64 0 -76 -123h-145q6 137 66 216t159 79q48 0 96.5 -20t80 -44.5t66 -44.5t58.5 -20q31 0 50.5 31.5t23.5 91.5h147q-6 -138 -66 -217.5t-159 -79.5zM627 -25q-252 0 -373 111t-121 344v680h307v-680
q0 -107 46 -159t141 -52t141.5 52t46.5 159v680h307v-680q0 -233 -120.5 -344t-374.5 -111z" />
    <glyph glyph-name="Umacron" unicode="&#x16a;" horiz-adv-x="1476" 
d="M1042 1624h-608v170h608v-170zM737 -29q-308 0 -453 148t-145 461v874h320v-874q0 -183 66.5 -268t211.5 -85q146 0 213.5 85t67.5 268v874h319v-874q0 -314 -145.5 -461.5t-454.5 -147.5z" />
    <glyph glyph-name="umacron" unicode="&#x16b;" horiz-adv-x="1255" 
d="M932 1276h-608v170h608v-170zM627 -25q-252 0 -373 111t-121 344v680h307v-680q0 -107 46 -159t141 -52t141.5 52t46.5 159v680h307v-680q0 -233 -120.5 -344t-374.5 -111z" />
    <glyph glyph-name="Ubreve" unicode="&#x16c;" horiz-adv-x="1476" 
d="M737 1569q-171 0 -264 83.5t-96 241.5h174q3 -75 50.5 -115t135.5 -40q89 0 137.5 40t51.5 115h172q-1 -158 -95 -241.5t-266 -83.5zM737 -29q-308 0 -453 148t-145 461v874h320v-874q0 -183 66.5 -268t211.5 -85q146 0 213.5 85t67.5 268v874h319v-874
q0 -314 -145.5 -461.5t-454.5 -147.5z" />
    <glyph glyph-name="ubreve" unicode="&#x16d;" horiz-adv-x="1255" 
d="M627 1219q-170 0 -264 84t-97 241h174q1 -73 50 -113t137 -40t136.5 40t49.5 113h174q-1 -157 -94.5 -241t-265.5 -84zM627 -25q-252 0 -373 111t-121 344v680h307v-680q0 -107 46 -159t141 -52t141.5 52t46.5 159v680h307v-680q0 -233 -120.5 -344t-374.5 -111z" />
    <glyph glyph-name="Uring" unicode="&#x16e;" horiz-adv-x="1476" 
d="M737 1550q-103 0 -173 68t-70 170q0 101 70 168t173 67q105 0 175.5 -67t70.5 -168q0 -102 -70.5 -170t-175.5 -68zM737 1679q45 0 75 31t30 78q0 46 -30 76t-75 30q-43 0 -72.5 -30.5t-29.5 -75.5q0 -47 29.5 -78t72.5 -31zM737 -29q-308 0 -453 148t-145 461v874h320
v-874q0 -183 66.5 -268t211.5 -85q146 0 213.5 85t67.5 268v874h319v-874q0 -314 -145.5 -461.5t-454.5 -147.5z" />
    <glyph glyph-name="uring" unicode="&#x16f;" horiz-adv-x="1255" 
d="M627 1200q-103 0 -173.5 68.5t-70.5 169.5t70.5 169t173.5 68q104 0 174.5 -68t70.5 -169t-70.5 -169.5t-174.5 -68.5zM627 1329q44 0 74 31t30 78t-29.5 77.5t-74.5 30.5q-44 0 -73.5 -30.5t-29.5 -77.5t29.5 -78t73.5 -31zM627 -25q-252 0 -373 111t-121 344v680h307
v-680q0 -107 46 -159t141 -52t141.5 52t46.5 159v680h307v-680q0 -233 -120.5 -344t-374.5 -111z" />
    <glyph glyph-name="Uhungarumlaut" unicode="&#x170;" horiz-adv-x="1476" 
d="M633 1561h-209l194 344h285zM1020 1561h-211l215 344h285zM737 -29q-308 0 -453 148t-145 461v874h320v-874q0 -183 66.5 -268t211.5 -85q146 0 213.5 85t67.5 268v874h319v-874q0 -314 -145.5 -461.5t-454.5 -147.5z" />
    <glyph glyph-name="uhungarumlaut" unicode="&#x171;" horiz-adv-x="1255" 
d="M537 1212h-207l192 344h285zM924 1212h-209l213 344h284zM627 -25q-252 0 -373 111t-121 344v680h307v-680q0 -107 46 -159t141 -52t141.5 52t46.5 159v680h307v-680q0 -233 -120.5 -344t-374.5 -111z" />
    <glyph glyph-name="Uogonek" unicode="&#x172;" horiz-adv-x="1476" 
d="M1018 580v874h319v-874q0 -280 -116 -427.5t-359 -175.5q-80 -86 -80 -155q0 -84 99 -84q52 0 92 14v-166q-59 -16 -150 -16q-122 0 -187 44.5t-65 129.5q0 114 109 229q-278 12 -409.5 160.5t-131.5 446.5v874h320v-874q0 -183 66.5 -268t211.5 -85q146 0 213.5 85
t67.5 268z" />
    <glyph glyph-name="uogonek" unicode="&#x173;" horiz-adv-x="1255" 
d="M815 430v680h307v-680q0 -201 -90 -310.5t-278 -135.5q-82 -92 -82 -162q0 -84 98 -84q52 0 92 14v-166q-62 -16 -149 -16q-123 0 -187.5 44.5t-64.5 129.5q0 117 110 233q-223 10 -330.5 122t-107.5 331v680h307v-680q0 -107 46 -159t141 -52t141.5 52t46.5 159z" />
    <glyph glyph-name="Wcircumflex" unicode="&#x174;" horiz-adv-x="2080" 
d="M889 1561h-213l239 344h250l240 -344h-213l-152 198zM791 0h-336l-408 1454h340l252 -995h4l240 995h329l242 -995h4l250 995h326l-410 -1454h-336l-246 1018h-4z" />
    <glyph glyph-name="wcircumflex" unicode="&#x175;" horiz-adv-x="1763" 
d="M729 1212h-211l238 344h252l239 -344h-213l-151 199zM686 0h-313l-332 1110h317l191 -766h4l188 766h297l189 -766h4l190 766h301l-331 -1110h-314l-192 788h-4z" />
    <glyph glyph-name="Ycircumflex" unicode="&#x176;" horiz-adv-x="1351" 
d="M524 1561h-213l240 344h250l239 -344h-213l-151 198zM836 0h-320v547l-498 907h355l309 -608h4l307 608h340l-497 -907v-547z" />
    <glyph glyph-name="ycircumflex" unicode="&#x177;" horiz-adv-x="1179" 
d="M438 1212h-213l240 344h250l239 -344h-213l-151 199zM580 -406h-336l186 467l-405 1049h327l244 -717h4l242 717h313z" />
    <glyph glyph-name="Ydieresis" unicode="&#x178;" horiz-adv-x="1351" 
d="M453 1591q-63 0 -106.5 43.5t-43.5 106.5q0 64 43.5 107.5t106.5 43.5q65 0 108 -43t43 -108q0 -63 -43.5 -106.5t-107.5 -43.5zM899 1591q-64 0 -107.5 43.5t-43.5 106.5q0 65 43 108t108 43q63 0 106.5 -43.5t43.5 -107.5q0 -63 -43.5 -106.5t-106.5 -43.5zM836 0h-320
v547l-498 907h355l309 -608h4l307 608h340l-497 -907v-547z" />
    <glyph glyph-name="Zacute" unicode="&#x179;" horiz-adv-x="1239" 
d="M719 1561h-221l190 344h299zM1137 0h-1043v225l639 981h-618v248h1009v-225l-639 -981h652v-248z" />
    <glyph glyph-name="zacute" unicode="&#x17a;" horiz-adv-x="1079" 
d="M639 1212h-221l188 344h301zM1004 0h-924v203l502 676h-484v231h893v-203l-502 -676h515v-231z" />
    <glyph glyph-name="Zdotaccent" unicode="&#x17b;" horiz-adv-x="1239" 
d="M623 1589q-65 0 -110.5 45t-45.5 111q0 64 45.5 108.5t110.5 44.5q66 0 110.5 -44t44.5 -109q0 -66 -44.5 -111t-110.5 -45zM1137 0h-1043v225l639 981h-618v248h1009v-225l-639 -981h652v-248z" />
    <glyph glyph-name="zdotaccent" unicode="&#x17c;" horiz-adv-x="1079" 
d="M539 1231q-65 0 -110.5 44.5t-45.5 108.5q0 66 45.5 111t110.5 45q66 0 110.5 -45t44.5 -111q0 -65 -44.5 -109t-110.5 -44zM1004 0h-924v203l502 676h-484v231h893v-203l-502 -676h515v-231z" />
    <glyph glyph-name="Zcaron" unicode="&#x17d;" horiz-adv-x="1239" 
d="M745 1561h-251l-238 344h211l154 -199l151 199h211zM1137 0h-1043v225l639 981h-618v248h1009v-225l-639 -981h652v-248z" />
    <glyph glyph-name="zcaron" unicode="&#x17e;" horiz-adv-x="1079" 
d="M666 1212h-252l-240 344h213l152 -200l151 200h213zM1004 0h-924v203l502 676h-484v231h893v-203l-502 -676h515v-231z" />
    <glyph glyph-name="uni018F" unicode="&#x18f;" horiz-adv-x="1429" 
d="M700 -29q-604 0 -604 777q0 56 2 83h899q-15 194 -116 295t-281 101q-201 0 -442 -119l-19 262q247 113 516 113q668 0 668 -754q0 -372 -158.5 -565t-464.5 -193zM707 209q291 0 294 412h-583q0 -412 289 -412z" />
    <glyph glyph-name="uni0218" unicode="&#x218;" horiz-adv-x="1155" 
d="M516 -29q-203 0 -420 82l19 275q213 -109 383 -109q109 0 171 47.5t62 130.5v4q0 43 -19 78t-59 62.5t-76 45.5t-96 42q-39 16 -59.5 24.5t-58.5 26t-59.5 30.5t-53.5 35t-50.5 42.5t-40.5 49.5t-33.5 60t-19.5 70t-8 82q0 198 139 316t371 118q182 0 373 -70l-18 -270
q-198 92 -332 92q-97 0 -154 -43t-57 -115v-6q0 -38 17 -68t55 -55t71.5 -40.5t93.5 -39.5h1l1 -1h1l1 -1h1h1l1 -1h1l1 -1q153 -61 220 -109q166 -118 167 -327q0 -210 -145.5 -333.5t-391.5 -123.5zM467 -446h-221l188 344h301z" />
    <glyph glyph-name="uni0219" unicode="&#x219;" horiz-adv-x="980" 
d="M446 -25q-199 0 -366 66l14 231q188 -82 338 -82q82 0 127 30.5t45 84.5v6q0 28 -14 50t-44 39.5t-58 29t-76 27.5q-35 12 -49 16.5t-49 18t-51.5 23t-46 27t-45 33.5t-36 40.5t-30.5 50.5t-17.5 59.5t-7.5 71.5q0 158 115 248t315 90q160 0 330 -56l-19 -227
q-168 68 -289 68q-72 0 -111.5 -27.5t-39.5 -77.5v-6q0 -18 5.5 -33.5t21.5 -29t27.5 -22t40 -20.5t41.5 -16.5t50 -17.5q36 -11 51 -16.5t50 -18.5t52.5 -22t47 -26.5t45.5 -33.5t36.5 -40t30.5 -50t17.5 -59.5t7.5 -71.5q0 -164 -123.5 -260.5t-335.5 -96.5zM383 -446
h-221l188 344h301z" />
    <glyph glyph-name="uni021A" unicode="&#x21a;" horiz-adv-x="1124" 
d="M721 0h-320v1194h-370v260h1061v-260h-371v-1194zM440 -446h-223l191 344h301z" />
    <glyph glyph-name="uni021B" unicode="&#x21b;" horiz-adv-x="823" 
d="M541 -25q-167 0 -249.5 87t-82.5 264v561h-168v223h168v274l307 35v-309h250v-223h-250v-502q0 -82 32.5 -121t102.5 -39q56 0 115 19v-238q-127 -31 -225 -31zM381 -446h-221l190 344h299z" />
    <glyph glyph-name="uni0237" unicode="&#x237;" horiz-adv-x="585" 
d="M94 -430q-78 0 -166 10v209q20 -4 76 -4q73 0 104 30.5t31 102.5v1192h307v-1192q0 -186 -82 -267t-270 -81z" />
    <glyph glyph-name="uni0259" unicode="&#x259;" horiz-adv-x="1179" 
d="M528 1135q278 0 420 -144.5t142 -425.5t-137.5 -435.5t-387.5 -154.5q-238 0 -360.5 148t-122.5 436q0 16 4 78h700q-10 141 -88.5 214t-216.5 73q-146 0 -338 -76l-18 215q198 72 403 72zM784 465h-405q3 -152 51 -224.5t145 -72.5q99 0 152.5 74.5t56.5 222.5z" />
    <glyph glyph-name="circumflex" unicode="&#x2c6;" horiz-adv-x="811" 
d="M254 1212h-213l240 344h249l240 -344h-213l-151 199z" />
    <glyph glyph-name="caron" unicode="&#x2c7;" horiz-adv-x="811" 
d="M530 1212h-249l-240 344h213l152 -200l151 200h213z" />
    <glyph glyph-name="breve" unicode="&#x2d8;" horiz-adv-x="802" 
d="M401 1219q-172 0 -265.5 84t-94.5 241h174q1 -73 49.5 -113t136.5 -40t137 40t50 113h174q-1 -157 -95 -241t-266 -84z" />
    <glyph glyph-name="dotaccent" unicode="&#x2d9;" horiz-adv-x="385" 
d="M193 1245q-66 0 -111 44t-45 110q0 65 45 109t111 44t110.5 -44t44.5 -109q0 -66 -44.5 -110t-110.5 -44z" />
    <glyph glyph-name="ring" unicode="&#x2da;" horiz-adv-x="571" 
d="M287 1200q-104 0 -175 68.5t-71 169.5t71 169t175 68t173.5 -68t69.5 -169t-69.5 -169.5t-173.5 -68.5zM287 1329q44 0 74 31t30 78t-29.5 77.5t-74.5 30.5t-75 -30.5t-30 -77.5t30 -78t75 -31z" />
    <glyph glyph-name="ogonek" unicode="&#x2db;" horiz-adv-x="483" 
d="M293 -430q-122 0 -187 44.5t-65 129.5q0 63 36.5 130.5t102.5 125.5h168q-96 -99 -96 -178q0 -84 98 -84q52 0 92 14v-166q-59 -16 -149 -16z" />
    <glyph glyph-name="tilde" unicode="&#x2dc;" horiz-adv-x="829" 
d="M563 1239q-48 0 -96.5 20.5t-80 45t-66 45t-58.5 20.5q-31 0 -50.5 -31.5t-23.5 -91.5h-147q6 137 66 216t161 79q48 0 95.5 -20t79 -44.5t66 -44.5t58.5 -20q65 0 74 123h147q-6 -138 -66 -217.5t-159 -79.5z" />
    <glyph glyph-name="hungarumlaut" unicode="&#x2dd;" horiz-adv-x="964" 
d="M250 1212h-209l192 344h285zM635 1212h-209l213 344h285z" />
    <glyph glyph-name="gravecomb" unicode="&#x300;" 
d="M-41 1212h-221l-268 344h301z" />
    <glyph glyph-name="acutecomb" unicode="&#x301;" 
d="M-309 1212h-221l190 344h299z" />
    <glyph glyph-name="uni0302" unicode="&#x302;" 
d="M-557 1212h-213l240 344h249l240 -344h-213l-152 199z" />
    <glyph glyph-name="tildecomb" unicode="&#x303;" 
d="M-266 1239q-48 0 -96.5 20.5t-80 45t-66 45t-58.5 20.5q-31 0 -50.5 -31.5t-23.5 -91.5h-147q6 137 66 216t161 79q48 0 95.5 -20t79 -44.5t66 -44.5t58.5 -20q65 0 74 123h147q-6 -138 -66 -217.5t-159 -79.5z" />
    <glyph glyph-name="uni0304" unicode="&#x304;" 
d="M-41 1276h-608v170h608v-170z" />
    <glyph glyph-name="uni0306" unicode="&#x306;" 
d="M-401 1219q-172 0 -266 84t-95 241h174q1 -73 50 -113t137 -40t136.5 40t49.5 113h174q-1 -157 -94.5 -241t-265.5 -84z" />
    <glyph glyph-name="uni0307" unicode="&#x307;" 
d="M-193 1245q-66 0 -110.5 44t-44.5 110q0 65 44.5 109t110.5 44t111 -44t45 -109q0 -66 -45 -110t-111 -44z" />
    <glyph glyph-name="uni0308" unicode="&#x308;" 
d="M-629 1245q-63 0 -106 43.5t-43 106.5q0 64 43 107.5t106 43.5q65 0 108.5 -43.5t43.5 -107.5q0 -63 -44 -106.5t-108 -43.5zM-182 1245q-64 0 -108 43.5t-44 106.5q0 64 43.5 107.5t108.5 43.5q63 0 106 -43.5t43 -107.5q0 -63 -43 -106.5t-106 -43.5z" />
    <glyph glyph-name="uni030A" unicode="&#x30a;" 
d="M-285 1200q-104 0 -174.5 68.5t-70.5 169.5t70.5 169t174.5 68t174 -68t70 -169t-70 -169.5t-174 -68.5zM-285 1329q45 0 75 31t30 78t-30 77.5t-75 30.5t-74.5 -30.5t-29.5 -77.5t30 -78t74 -31z" />
    <glyph glyph-name="uni030B" unicode="&#x30b;" 
d="M-715 1212h-209l193 344h285zM-330 1212h-209l213 344h285z" />
    <glyph glyph-name="uni030C" unicode="&#x30c;" 
d="M-281 1212h-249l-240 344h213l151 -200l152 200h213z" />
    <glyph glyph-name="uni0312" unicode="&#x312;" 
d="M-166 1212h-268l194 344h199z" />
    <glyph glyph-name="uni0326" unicode="&#x326;" 
d="M-309 -446h-221l190 344h299z" />
    <glyph glyph-name="uni0327" unicode="&#x327;" 
d="M-297 -430q-83 0 -145 16v164q46 -12 82 -12q114 0 114 110q0 72 -51 152h182q74 -106 74 -207q0 -103 -69 -163t-187 -60z" />
    <glyph glyph-name="uni0328" unicode="&#x328;" 
d="M-190 -430q-122 0 -187 44.5t-65 129.5q0 63 36.5 130.5t102.5 125.5h168q-96 -99 -96 -178q0 -84 98 -84q52 0 92 14v-166q-59 -16 -149 -16z" />
    <glyph glyph-name="tonos" unicode="&#x384;" horiz-adv-x="1024" 
d="M592 1204h-197l35 355h291z" />
    <glyph glyph-name="dieresistonos" unicode="&#x385;" horiz-adv-x="1024" 
d="M565 1190h-166l33 399h244zM201 1231q-58 0 -99 41t-41 100q0 60 41 102t99 42q59 0 100 -42t41 -102q0 -58 -41 -99.5t-100 -41.5zM823 1231q-59 0 -100 41.5t-41 99.5q0 60 41 102t100 42q58 0 99 -42t41 -102q0 -59 -41 -100t-99 -41z" />
    <glyph glyph-name="Alphatonos" unicode="&#x386;" horiz-adv-x="1454" 
d="M211 1114h-195l33 354h291zM393 0h-315l469 1454h414l471 -1454h-332l-92 303h-523zM743 1184l-198 -660h401l-198 660h-5z" />
    <glyph glyph-name="Epsilontonos" unicode="&#x388;" horiz-adv-x="1423" 
d="M172 1114h-195l33 354h291zM1343 0h-913v1454h895v-248h-582v-348h535v-237h-535v-373h600v-248z" />
    <glyph glyph-name="Etatonos" unicode="&#x389;" horiz-adv-x="1732" 
d="M172 1114h-195l33 354h291zM750 0h-320v1454h320v-575h514v575h319v-1454h-319v614h-514v-614z" />
    <glyph glyph-name="Iotatonos" unicode="&#x38a;" horiz-adv-x="901" 
d="M172 1114h-195l33 354h291zM750 0h-320v1454h320v-1454z" />
    <glyph glyph-name="Omicrontonos" unicode="&#x38c;" horiz-adv-x="1689" 
d="M940 -29q-316 0 -479.5 192t-163.5 564t163.5 564t479.5 192t479.5 -192t163.5 -564t-163.5 -564t-479.5 -192zM172 1114h-195l33 354h291zM940 219q322 0 322 492v32q0 492 -322 492t-322 -492v-32q0 -492 322 -492z" />
    <glyph glyph-name="Upsilontonos" unicode="&#x38e;" horiz-adv-x="1720" 
d="M172 1114h-195l33 354h291zM1204 0h-319v547l-498 907h356l308 -608h4l309 608h340l-500 -907v-547z" />
    <glyph glyph-name="Omegatonos" unicode="&#x38f;" horiz-adv-x="1701" 
d="M856 0h-559v248h268v4q-124 100 -190 249.5t-66 332.5q0 301 172.5 475t470.5 174q299 0 471 -174t172 -475q0 -184 -65.5 -333t-188.5 -249v-4h267v-248h-557v225q107 95 165 236t58 305v16q0 224 -81.5 338.5t-240.5 114.5q-157 0 -238 -114.5t-81 -338.5v-16
q0 -164 58 -305t165 -236v-225zM172 1114h-195l33 354h291z" />
    <glyph glyph-name="iotadieresistonos" unicode="&#x390;" horiz-adv-x="669" 
d="M360 1196h-163l30 401h244zM-2 1239q-58 0 -99.5 41.5t-41.5 99.5q0 60 41 101t100 41t99 -41t40 -101q0 -59 -40.5 -100t-98.5 -41zM621 1239q-59 0 -100.5 41.5t-41.5 99.5q0 60 41.5 101t100.5 41t99 -41t40 -101q0 -59 -40.5 -100t-98.5 -41zM434 -12
q-156 0 -227.5 79t-71.5 250v793h307v-766q0 -71 27.5 -104t87.5 -33q35 0 84 14v-203q-105 -30 -207 -30z" />
    <glyph glyph-name="Alpha" unicode="&#x391;" horiz-adv-x="1396" 
d="M338 0h-315l469 1454h413l471 -1454h-332l-92 303h-524zM688 1184l-199 -660h402l-199 660h-4z" />
    <glyph glyph-name="Beta" unicode="&#x392;" horiz-adv-x="1355" 
d="M963 766v-4q294 -72 294 -342q0 -198 -144 -309t-402 -111h-561v1454h514q267 0 403.5 -93t136.5 -274q0 -241 -241 -321zM645 1239h-186v-395h194q116 0 179 49.5t63 140.5v15q0 92 -64.5 141t-185.5 49zM676 641h-217v-426h227q126 0 194 54t68 155v16q0 99 -69 150
t-203 51z" />
    <glyph glyph-name="Gamma" unicode="&#x393;" horiz-adv-x="1011" 
d="M469 0h-319v1454h823v-264h-504v-1190z" />
    <glyph glyph-name="uni0394" unicode="&#x394;" horiz-adv-x="1505" 
d="M1430 0h-1354l471 1454h414zM743 1184l-284 -936h571l-282 936h-5z" />
    <glyph glyph-name="Epsilon" unicode="&#x395;" horiz-adv-x="1142" 
d="M1063 0h-913v1454h894v-248h-581v-348h532v-237h-532v-373h600v-248z" />
    <glyph glyph-name="Zeta" unicode="&#x396;" horiz-adv-x="1239" 
d="M1137 0h-1043v225l639 981h-618v248h1009v-225l-639 -981h652v-248z" />
    <glyph glyph-name="Eta" unicode="&#x397;" horiz-adv-x="1452" 
d="M469 0h-319v1454h319v-575h514v575h320v-1454h-320v614h-514v-614z" />
    <glyph glyph-name="Theta" unicode="&#x398;" horiz-adv-x="1548" 
d="M774 -29q-329 0 -498.5 192t-169.5 564t169.5 564t498.5 192q330 0 499 -192t169 -564t-169 -564t-499 -192zM774 219q346 0 346 492v32q0 492 -346 492t-346 -492v-32q0 -492 346 -492zM1018 614h-488v240h488v-240z" />
    <glyph glyph-name="Iota" unicode="&#x399;" horiz-adv-x="618" 
d="M469 0h-319v1454h319v-1454z" />
    <glyph glyph-name="Kappa" unicode="&#x39a;" horiz-adv-x="1363" 
d="M467 0h-317v1454h317v-635h6l471 635h356l-540 -706l565 -748h-373l-479 655h-6v-655z" />
    <glyph glyph-name="Lambda" unicode="&#x39b;" horiz-adv-x="1404" 
d="M344 0h-321l489 1454h381l489 -1454h-338l-348 1124h-4z" />
    <glyph glyph-name="Mu" unicode="&#x39c;" horiz-adv-x="1763" 
d="M461 0h-311v1454h311l420 -682l419 682h312v-1454h-312v944h-4l-407 -670h-15l-409 670h-4v-944z" />
    <glyph glyph-name="Nu" unicode="&#x39d;" horiz-adv-x="1507" 
d="M453 0h-303v1454h335l566 -940h4v940h303v-1454h-303l-598 995h-4v-995z" />
    <glyph glyph-name="Xi" unicode="&#x39e;" horiz-adv-x="1134" 
d="M1026 1200h-917v254h917v-254zM893 623h-651v245h651v-245zM1040 0h-946v254h946v-254z" />
    <glyph glyph-name="Omicron" unicode="&#x39f;" horiz-adv-x="1499" 
d="M750 -29q-317 0 -480.5 192t-163.5 564t163.5 564t480.5 192q316 0 479.5 -192t163.5 -564t-163.5 -564t-479.5 -192zM750 219q161 0 240 122t79 370v32q0 248 -79 370t-240 122q-322 0 -322 -492v-32q0 -492 322 -492z" />
    <glyph glyph-name="Pi" unicode="&#x3a0;" horiz-adv-x="1452" 
d="M469 0h-319v1454h1153v-1454h-320v1206h-514v-1206z" />
    <glyph glyph-name="Rho" unicode="&#x3a1;" horiz-adv-x="1275" 
d="M463 0h-313v1454h530q262 0 399.5 -117t137.5 -340t-132.5 -339.5t-384.5 -116.5h-237v-541zM463 1219v-453h201q115 0 177 57.5t62 163.5v14q0 106 -64 162t-184 56h-192z" />
    <glyph glyph-name="Sigma" unicode="&#x3a3;" horiz-adv-x="1212" 
d="M1122 0h-1046v225l401 514l-381 490v225h1008v-248h-588l350 -448v-13l-389 -497h645v-248z" />
    <glyph glyph-name="Tau" unicode="&#x3a4;" horiz-adv-x="1124" 
d="M721 0h-320v1194h-370v260h1061v-260h-371v-1194z" />
    <glyph glyph-name="Upsilon" unicode="&#x3a5;" horiz-adv-x="1351" 
d="M836 0h-320v547l-498 907h355l309 -608h4l307 608h340l-497 -907v-547z" />
    <glyph glyph-name="Phi" unicode="&#x3a6;" horiz-adv-x="1738" 
d="M1026 -29h-313v262q-301 20 -454 166.5t-153 413.5q0 266 152.5 412t454.5 168v143h313v-143q302 -22 454 -168t152 -412q0 -267 -152.5 -413.5t-453.5 -166.5v-262zM719 440v742q-148 -17 -226.5 -109t-78.5 -250v-20q0 -158 78 -251t227 -112zM1020 1182v-742
q149 19 227 111t78 250v22q0 158 -78.5 250t-226.5 109z" />
    <glyph glyph-name="Chi" unicode="&#x3a7;" horiz-adv-x="1417" 
d="M391 0h-354l469 739l-447 715h369l289 -506l289 506h352l-447 -700l469 -754h-370l-310 545z" />
    <glyph glyph-name="Psi" unicode="&#x3a8;" horiz-adv-x="1669" 
d="M991 0h-313v434q-289 26 -424 166t-135 412v442h305v-436q0 -163 61.5 -247t198.5 -109v792h301v-792q137 25 198.5 109t61.5 247v436h305v-442q0 -271 -135.5 -411.5t-423.5 -166.5v-434z" />
    <glyph glyph-name="uni03A9" unicode="&#x3a9;" horiz-adv-x="1499" 
d="M651 0h-557v248h266v4q-123 100 -188.5 249.5t-65.5 332.5q0 301 172.5 475t471.5 174q298 0 470.5 -174t172.5 -475q0 -184 -65.5 -333t-190.5 -249v-4h268v-248h-559v225q107 95 165 236t58 305v16q0 224 -80.5 338.5t-238.5 114.5q-159 0 -240.5 -114.5t-81.5 -338.5
v-16q0 -164 58 -305t165 -236v-225z" />
    <glyph glyph-name="Iotadieresis" unicode="&#x3aa;" horiz-adv-x="618" 
d="M86 1591q-63 0 -106 43.5t-43 106.5q0 64 43 107.5t106 43.5q65 0 108.5 -43.5t43.5 -107.5q0 -63 -44 -106.5t-108 -43.5zM532 1591q-64 0 -107.5 43.5t-43.5 106.5q0 65 43.5 108t107.5 43q63 0 106.5 -43.5t43.5 -107.5q0 -63 -43.5 -106.5t-106.5 -43.5zM469 0h-319
v1454h319v-1454z" />
    <glyph glyph-name="Upsilondieresis" unicode="&#x3ab;" horiz-adv-x="1351" 
d="M453 1591q-63 0 -106.5 43.5t-43.5 106.5q0 64 43.5 107.5t106.5 43.5q65 0 108 -43t43 -108q0 -63 -43.5 -106.5t-107.5 -43.5zM899 1591q-64 0 -107.5 43.5t-43.5 106.5q0 65 43 108t108 43q63 0 106.5 -43.5t43.5 -107.5q0 -63 -43.5 -106.5t-106.5 -43.5zM836 0h-320
v547l-498 907h355l309 -608h4l307 608h340l-497 -907v-547z" />
    <glyph glyph-name="alphatonos" unicode="&#x3ac;" horiz-adv-x="1300" 
d="M729 1212h-197l35 355h291zM508 -25q-199 0 -308.5 150t-109.5 424q0 271 114.5 428.5t315.5 157.5q129 0 213.5 -67.5t130.5 -207.5h6l52 250h297l-142 -555l47 -207q17 -75 42 -108t65 -33q7 0 47 8v-201q-80 -26 -164 -26q-113 0 -168.5 58t-83.5 200h-4
q-53 -138 -138 -204.5t-212 -66.5zM590 205q80 0 133.5 76t85.5 237l6 37l-6 37q-35 173 -81 243t-124 70q-98 0 -151.5 -88t-53.5 -248v-30q0 -158 50.5 -246t140.5 -88z" />
    <glyph glyph-name="epsilontonos" unicode="&#x3ad;" horiz-adv-x="1026" 
d="M655 1212h-194l35 355h290zM565 -25q-218 0 -338.5 83t-120.5 231q0 97 55 166t161 104v4q-193 59 -193 242q0 151 125 240.5t338 89.5q155 0 340 -52l-19 -229q-62 27 -145 46.5t-152 19.5q-89 0 -140.5 -36t-51.5 -98v-4q0 -125 213 -125h119v-184h-97
q-249 0 -249 -139v-4q0 -66 53 -103t151 -37q75 0 164 19.5t152 46.5l16 -221q-182 -60 -381 -60z" />
    <glyph glyph-name="etatonos" unicode="&#x3ae;" horiz-adv-x="1263" 
d="M711 1212h-195l35 355h289zM1130 -406h-307v1090q0 207 -172 207q-94 0 -149.5 -59.5t-55.5 -161.5v-670h-307v1110h295v-158h4q47 89 135 136t205 47q172 0 262 -103t90 -299v-1139z" />
    <glyph glyph-name="iotatonos" unicode="&#x3af;" horiz-adv-x="669" 
d="M367 1212h-195l35 355h289zM434 -12q-156 0 -227.5 79t-71.5 250v793h307v-766q0 -71 27.5 -104t87.5 -33q35 0 84 14v-203q-105 -30 -207 -30z" />
    <glyph glyph-name="upsilondieresistonos" unicode="&#x3b0;" horiz-adv-x="1226" 
d="M662 1196h-166l32 401h244zM297 1239q-58 0 -98.5 41t-40.5 100q0 60 40 101t99 41t100 -41t41 -101q0 -58 -41 -99.5t-100 -41.5zM920 1239q-58 0 -99 41t-41 100q0 60 40.5 101t99.5 41t100 -41t41 -101q0 -58 -41.5 -99.5t-99.5 -41.5zM614 -25q-244 0 -362.5 115
t-118.5 352v668h307v-680q0 -221 183 -221q106 0 151 76t45 256v18q0 252 -84 551h309q82 -317 82 -563q0 -295 -124 -433.5t-388 -138.5z" />
    <glyph glyph-name="alpha" unicode="&#x3b1;" horiz-adv-x="1300" 
d="M508 -25q-199 0 -308.5 150t-109.5 424q0 271 114.5 428.5t315.5 157.5q129 0 213.5 -67.5t130.5 -207.5h6l52 250h297l-142 -555l47 -207q17 -75 42 -108t65 -33q7 0 47 8v-201q-80 -26 -164 -26q-113 0 -168.5 58t-83.5 200h-4q-53 -138 -138 -204.5t-212 -66.5z
M590 205q80 0 133.5 76t85.5 237l6 37l-6 37q-35 173 -81 243t-124 70q-98 0 -151.5 -88t-53.5 -248v-30q0 -158 50.5 -246t140.5 -88z" />
    <glyph glyph-name="beta" unicode="&#x3b2;" horiz-adv-x="1320" 
d="M446 -406h-307v1465q0 243 132 372.5t380 129.5q231 0 361.5 -108.5t130.5 -299.5q0 -258 -236 -344v-4q158 -41 240 -142.5t82 -252.5q0 -195 -126.5 -315t-332.5 -120q-213 0 -319 148h-5v-529zM684 203q106 0 170 66t64 173v9q0 112 -68.5 172.5t-194.5 60.5h-32v223
h22q96 0 147.5 54t51.5 155v8q0 103 -51 160t-142 57q-100 0 -152.5 -71t-52.5 -209v-582q0 -127 64.5 -201.5t173.5 -74.5z" />
    <glyph glyph-name="gamma" unicode="&#x3b3;" horiz-adv-x="1138" 
d="M723 -406h-307v76q0 328 -91 651.5t-313 788.5h328q204 -461 233 -877h7q35 432 233 877h313q-221 -462 -312 -786.5t-91 -653.5v-76z" />
    <glyph glyph-name="delta" unicode="&#x3b4;" horiz-adv-x="1243" 
d="M623 -25q-250 0 -391.5 145t-141.5 400q0 189 80.5 313t235.5 173v4q-177 78 -177 252q0 139 115 219t315 80q162 0 320 -45l-18 -230q-154 60 -283 60q-79 0 -123.5 -25.5t-44.5 -71.5v-4q0 -28 17 -50.5t51.5 -40t67 -29.5t82.5 -29t79 -29q346 -141 346 -539
q0 -261 -140 -407t-390 -146zM621 193q223 0 223 327v33q0 163 -57 246.5t-166 83.5q-222 0 -222 -330v-33q0 -327 222 -327z" />
    <glyph glyph-name="epsilon" unicode="&#x3b5;" horiz-adv-x="1026" 
d="M565 -25q-218 0 -338.5 83t-120.5 231q0 97 55 166t161 104v4q-193 59 -193 242q0 151 125 240.5t338 89.5q155 0 340 -52l-19 -229q-62 27 -145 46.5t-152 19.5q-89 0 -140.5 -36t-51.5 -98v-4q0 -125 213 -125h119v-184h-97q-249 0 -249 -139v-4q0 -66 53 -103t151 -37
q75 0 164 19.5t152 46.5l16 -221q-182 -60 -381 -60z" />
    <glyph glyph-name="zeta" unicode="&#x3b6;" horiz-adv-x="974" 
d="M586 -381q-79 0 -125 14v201q25 -10 65 -10q53 0 81 20t28 56q0 39 -29 62t-94 54q-13 6 -20 9q-214 100 -303 211.5t-89 273.5q0 182 121.5 352.5t448.5 448.5v4h-529v221h846v-242q-328 -298 -452.5 -458t-124.5 -283v-10q0 -105 60 -172.5t243 -161.5q91 -51 121 -76
q98 -80 98 -217q0 -140 -91 -218.5t-255 -78.5z" />
    <glyph glyph-name="eta" unicode="&#x3b7;" horiz-adv-x="1263" 
d="M1130 -406h-307v1090q0 207 -172 207q-94 0 -149.5 -59.5t-55.5 -161.5v-670h-307v1110h295v-158h4q47 89 135 136t205 47q172 0 262 -103t90 -299v-1139z" />
    <glyph glyph-name="theta" unicode="&#x3b8;" horiz-adv-x="1275" 
d="M637 -25q-272 0 -409.5 199.5t-137.5 593.5t137.5 593.5t409.5 199.5q547 0 547 -793t-547 -793zM401 874h473q-7 241 -65 355t-172 114q-113 0 -171 -114t-65 -355zM637 193q114 0 172 115.5t65 359.5h-473q6 -244 64 -359.5t172 -115.5z" />
    <glyph glyph-name="iota" unicode="&#x3b9;" horiz-adv-x="669" 
d="M434 -12q-156 0 -227.5 79t-71.5 250v793h307v-766q0 -71 27.5 -104t87.5 -33q35 0 84 14v-203q-105 -30 -207 -30z" />
    <glyph glyph-name="kappa" unicode="&#x3ba;" horiz-adv-x="1173" 
d="M446 0h-307v1110h307v-477h5l342 477h340l-406 -535l430 -575h-358l-348 489h-5v-489z" />
    <glyph glyph-name="lambda" unicode="&#x3bb;" horiz-adv-x="1249" 
d="M1059 -12q-111 0 -175.5 54t-101.5 179l-153 490h-4l-258 -711h-324l438 1034l-45 137q-31 89 -74 128.5t-110 39.5q-46 0 -117 -18l-14 211q113 29 213 29q159 0 255 -82.5t163 -280.5l297 -872q24 -64 50.5 -91.5t67.5 -27.5q18 0 68 10v-201q-75 -28 -176 -28z" />
    <glyph glyph-name="uni03BC" unicode="&#x3bc;" horiz-adv-x="1288" 
d="M1198 207q11 0 41 6v-203q-68 -22 -170 -22q-92 0 -144 32t-77 103h-2q-90 -141 -262 -141q-82 0 -138 26v-414h-307v1516h307v-684q0 -207 172 -207q94 0 149.5 59t55.5 160v672h307v-786q0 -117 68 -117z" />
    <glyph glyph-name="nu" unicode="&#x3bd;" horiz-adv-x="1120" 
d="M711 0h-326l-385 1110h324l243 -801h4q87 198 144 414.5t69 386.5h310q-36 -418 -383 -1110z" />
    <glyph glyph-name="xi" unicode="&#x3be;" horiz-adv-x="970" 
d="M575 -381q-79 0 -122 14v201q29 -10 65 -10q52 0 79.5 20.5t27.5 57.5q0 11 -2 20t-7.5 17.5t-9.5 14.5t-15.5 13.5t-17.5 11.5t-22 11.5t-24 10.5t-28.5 11.5t-29.5 12.5q-205 88 -292 183.5t-87 227.5q0 129 71.5 218.5t203.5 129.5v4q-106 35 -163 110.5t-57 180.5
q0 146 115 232v4h-166v221h846v-221h-235q-126 0 -197.5 -53.5t-71.5 -147.5v-6q0 -94 71.5 -146.5t197.5 -52.5h155v-227h-190q-126 0 -197.5 -55t-71.5 -152v-8q0 -76 45 -122t175 -103q175 -77 238 -144.5t63 -173.5q0 -146 -91 -225.5t-256 -79.5z" />
    <glyph glyph-name="omicron" unicode="&#x3bf;" horiz-adv-x="1239" 
d="M618 -25q-255 0 -391.5 150t-136.5 430t136.5 430t391.5 150q256 0 392.5 -150t136.5 -430q0 -281 -136 -430.5t-393 -149.5zM618 193q220 0 220 346v32q0 347 -220 347q-219 0 -219 -347v-32q0 -346 219 -346z" />
    <glyph glyph-name="pi" unicode="&#x3c0;" horiz-adv-x="1447" 
d="M1163 -12q-158 0 -230.5 79.5t-72.5 251.5v551h-274l-88 -870h-310l105 870h-232v240h1328v-240h-222v-524q0 -139 117 -139q41 0 84 14v-203q-108 -30 -205 -30z" />
    <glyph glyph-name="rho" unicode="&#x3c1;" horiz-adv-x="1255" 
d="M436 -406h-307v945q0 284 137.5 440t386.5 156q250 0 382 -150t132 -434q0 -278 -112.5 -427t-321.5 -149q-199 0 -293 144h-4v-525zM647 203q211 0 211 340v32q0 338 -209 338q-103 0 -158 -88.5t-55 -257.5v-82q0 -133 55.5 -207.5t155.5 -74.5z" />
    <glyph glyph-name="uni03C2" unicode="&#x3c2;" horiz-adv-x="993" 
d="M580 -381q-81 0 -127 14v201q40 -10 65 -10q107 0 107 78q0 10 -2 18.5t-7.5 16.5t-10 14t-15.5 14t-18 12.5t-23 13t-24.5 13t-30 14.5t-31.5 15q-196 97 -284.5 228t-88.5 325q0 263 143.5 406t407.5 143q147 0 274 -48l-18 -253q-118 59 -225 59q-128 0 -199.5 -82.5
t-71.5 -230.5v-11q0 -119 58 -194t209 -150q52 -27 86 -47.5t69 -49t54.5 -57.5t32 -68t12.5 -87q0 -140 -90.5 -218.5t-251.5 -78.5z" />
    <glyph glyph-name="sigma" unicode="&#x3c3;" horiz-adv-x="1232" 
d="M598 -25q-243 0 -375.5 148t-132.5 420q0 275 135.5 421t390.5 146h541v-223l-227 28v-6q184 -117 184 -397q0 -250 -137.5 -393.5t-378.5 -143.5zM610 193q209 0 209 342v30q0 344 -209 344q-211 0 -211 -344v-30q0 -342 211 -342z" />
    <glyph glyph-name="tau" unicode="&#x3c4;" horiz-adv-x="997" 
d="M633 -12q-167 0 -242.5 83.5t-75.5 268.5v547h-282v223h905v-223h-317v-522q0 -158 133 -158q46 0 98 14v-203q-114 -30 -219 -30z" />
    <glyph glyph-name="upsilon" unicode="&#x3c5;" horiz-adv-x="1226" 
d="M614 -25q-244 0 -362.5 115t-118.5 352v668h307v-680q0 -221 183 -221q106 0 151 76t45 256v18q0 252 -84 551h309q82 -317 82 -563q0 -295 -124 -433.5t-388 -138.5z" />
    <glyph glyph-name="phi" unicode="&#x3c6;" horiz-adv-x="1648" 
d="M969 -406h-289v390q-290 25 -439 169t-149 400q0 517 588 573v275h289v-275q291 -26 439 -170.5t148 -402.5q0 -257 -148.5 -400.5t-438.5 -168.5v-390zM680 188v732q-281 -50 -281 -351v-30q0 -301 281 -351zM969 920v-732q280 50 280 351v30q0 301 -280 351z" />
    <glyph glyph-name="chi" unicode="&#x3c7;" horiz-adv-x="1163" 
d="M309 -406h-332l416 766l-393 742h340l248 -529l250 529h323l-391 -731l414 -777h-344l-267 566z" />
    <glyph glyph-name="psi" unicode="&#x3c8;" horiz-adv-x="1640" 
d="M971 -406h-287v388q-290 22 -420.5 156.5t-130.5 414.5v557h307v-557q0 -173 55 -252t189 -98v1198h287v-1198q141 19 201.5 100.5t60.5 251.5v16q0 251 -82 539h307q82 -311 82 -541q0 -281 -136 -420.5t-433 -164.5v-390z" />
    <glyph glyph-name="omega" unicode="&#x3c9;" horiz-adv-x="1671" 
d="M535 -25q-207 0 -322 154t-115 432q0 305 160 549h322q-81 -118 -126.5 -268.5t-45.5 -300.5v-17q0 -163 38.5 -239t120.5 -76q71 0 103 60t32 192v315h267v-315q0 -132 32 -192t103 -60q82 0 121 76.5t39 238.5v17q0 150 -45.5 300.5t-126.5 268.5h321
q160 -244 160 -551q0 -278 -114 -431t-320 -153q-227 0 -301 193h-4q-76 -193 -299 -193z" />
    <glyph glyph-name="iotadieresis" unicode="&#x3ca;" horiz-adv-x="669" 
d="M66 1245q-64 0 -108 43.5t-44 106.5q0 64 43.5 107.5t108.5 43.5q63 0 107 -43.5t44 -107.5q0 -63 -44 -106.5t-107 -43.5zM510 1245q-63 0 -106.5 43.5t-43.5 106.5q0 64 43.5 107.5t106.5 43.5q65 0 108.5 -43.5t43.5 -107.5q0 -63 -44 -106.5t-108 -43.5zM434 -12
q-156 0 -227.5 79t-71.5 250v793h307v-766q0 -71 27.5 -104t87.5 -33q35 0 84 14v-203q-105 -30 -207 -30z" />
    <glyph glyph-name="upsilondieresis" unicode="&#x3cb;" horiz-adv-x="1226" 
d="M365 1245q-63 0 -106.5 43.5t-43.5 106.5q0 64 43.5 107.5t106.5 43.5q65 0 108 -43t43 -108q0 -63 -43.5 -106.5t-107.5 -43.5zM811 1245q-64 0 -108 43.5t-44 106.5q0 64 43.5 107.5t108.5 43.5q63 0 106.5 -43.5t43.5 -107.5q0 -63 -43.5 -106.5t-106.5 -43.5z
M614 -25q-244 0 -362.5 115t-118.5 352v668h307v-680q0 -221 183 -221q106 0 151 76t45 256v18q0 252 -84 551h309q82 -317 82 -563q0 -295 -124 -433.5t-388 -138.5z" />
    <glyph glyph-name="omicrontonos" unicode="&#x3cc;" horiz-adv-x="1239" 
d="M698 1212h-194l35 355h290zM618 -25q-255 0 -391.5 150t-136.5 430t136.5 430t391.5 150q256 0 392.5 -150t136.5 -430q0 -281 -136 -430.5t-393 -149.5zM618 193q220 0 220 346v32q0 347 -220 347q-219 0 -219 -347v-32q0 -346 219 -346z" />
    <glyph glyph-name="upsilontonos" unicode="&#x3cd;" horiz-adv-x="1226" 
d="M668 1212h-197l35 355h291zM614 -25q-244 0 -362.5 115t-118.5 352v668h307v-680q0 -221 183 -221q106 0 151 76t45 256v18q0 252 -84 551h309q82 -317 82 -563q0 -295 -124 -433.5t-388 -138.5z" />
    <glyph glyph-name="omegatonos" unicode="&#x3ce;" horiz-adv-x="1671" 
d="M913 1212h-194l35 355h290zM535 -25q-207 0 -322 154t-115 432q0 305 160 549h322q-81 -118 -126.5 -268.5t-45.5 -300.5v-17q0 -163 38.5 -239t120.5 -76q71 0 103 60t32 192v315h267v-315q0 -132 32 -192t103 -60q82 0 121 76.5t39 238.5v17q0 150 -45.5 300.5
t-126.5 268.5h321q160 -244 160 -551q0 -278 -114 -431t-320 -153q-227 0 -301 193h-4q-76 -193 -299 -193z" />
    <glyph glyph-name="uni0401" unicode="&#x401;" horiz-adv-x="1142" 
d="M369 1591q-64 0 -108 43.5t-44 106.5q0 64 43.5 107.5t108.5 43.5q63 0 106 -43.5t43 -107.5q0 -63 -43 -106.5t-106 -43.5zM813 1591q-63 0 -106 43.5t-43 106.5q0 64 43 107.5t106 43.5q65 0 108.5 -43.5t43.5 -107.5q0 -63 -44 -106.5t-108 -43.5zM1063 0h-913v1454
h894v-248h-581v-348h532v-237h-532v-373h600v-248z" />
    <glyph glyph-name="uni0402" unicode="&#x402;" horiz-adv-x="1632" 
d="M1057 -29q-78 0 -197 21v227q58 -12 117 -12q209 0 209 223v10q0 228 -221 228q-122 0 -248 -47v-621h-316v1194h-370v260h1120v-260h-434v-358q157 57 323 57q222 0 341.5 -120.5t119.5 -344.5q0 -220 -115 -338.5t-329 -118.5z" />
    <glyph glyph-name="uni0403" unicode="&#x403;" horiz-adv-x="1032" 
d="M668 1561h-222l191 344h301zM469 0h-319v1454h839v-264h-520v-1190z" />
    <glyph glyph-name="uni0404" unicode="&#x404;" horiz-adv-x="1230" 
d="M745 -29q-318 0 -481.5 189t-163.5 555q0 375 168 571.5t488 196.5q192 0 393 -74l-21 -254q-177 86 -325 86q-153 0 -248.5 -98t-118.5 -279h533v-229h-539q12 -202 108 -312t259 -110t350 96l20 -258q-205 -80 -422 -80z" />
    <glyph glyph-name="uni0405" unicode="&#x405;" horiz-adv-x="1155" 
d="M516 -29q-203 0 -420 82l19 275q213 -109 383 -109q109 0 171 47.5t62 130.5v4q0 43 -19 78t-59 62.5t-76 45.5t-96 42q-39 16 -59.5 24.5t-58.5 26t-59.5 30.5t-53.5 35t-50.5 42.5t-40.5 49.5t-33.5 60t-19.5 70t-8 82q0 198 139 316t371 118q182 0 373 -70l-18 -270
q-198 92 -332 92q-97 0 -154 -43t-57 -115v-6q0 -38 17 -68t55 -55t71.5 -40.5t93.5 -39.5h1l1 -1h1l1 -1h1h1l1 -1h1l1 -1q153 -61 220 -109q166 -118 167 -327q0 -210 -145.5 -333.5t-391.5 -123.5z" />
    <glyph glyph-name="uni0406" unicode="&#x406;" horiz-adv-x="618" 
d="M469 0h-319v1454h319v-1454z" />
    <glyph glyph-name="uni0407" unicode="&#x407;" horiz-adv-x="618" 
d="M86 1591q-63 0 -106 43.5t-43 106.5q0 64 43 107.5t106 43.5q65 0 108.5 -43.5t43.5 -107.5q0 -63 -44 -106.5t-108 -43.5zM532 1591q-64 0 -107.5 43.5t-43.5 106.5q0 65 43.5 108t107.5 43q63 0 106.5 -43.5t43.5 -107.5q0 -63 -43.5 -106.5t-106.5 -43.5zM469 0h-319
v1454h319v-1454z" />
    <glyph glyph-name="uni0408" unicode="&#x408;" horiz-adv-x="808" 
d="M248 -29q-84 0 -201 21v239q82 -12 117 -12q100 0 143 48.5t43 160.5v1026h320v-1059q0 -224 -99.5 -324t-322.5 -100z" />
    <glyph glyph-name="uni0409" unicode="&#x409;" horiz-adv-x="2127" 
d="M193 -29q-77 0 -181 19v231q42 -10 82 -10q34 0 59.5 11t47.5 38.5t37.5 68.5t28 108t20.5 150.5t13 201.5t7 255.5t2 317.5v92h987v-561h215q269 0 408 -113.5t139 -333.5q0 -218 -136 -332t-398 -114h-543v1206h-375v-49q0 -238 -8 -410.5t-27.5 -308.5t-50 -222.5
t-77.5 -142.5t-107 -79t-143 -23zM1296 668v-432h217q110 0 171 54t61 154v13q0 103 -62 157t-180 54h-207z" />
    <glyph glyph-name="uni040A" unicode="&#x40a;" horiz-adv-x="2127" 
d="M469 0h-319v1454h319v-571h514v571h320v-571h213q268 0 406 -112t138 -329t-135.5 -329.5t-396.5 -112.5h-545v618h-514v-618zM1303 655v-419h215q110 0 169.5 53t59.5 151v11q0 100 -61.5 152t-178.5 52h-204z" />
    <glyph glyph-name="uni040B" unicode="&#x40b;" horiz-adv-x="1624" 
d="M717 0h-316v1194h-370v260h1120v-260h-434v-358q163 57 342 57q217 0 329.5 -110t112.5 -324v-459h-315v444q0 115 -54 169.5t-165 54.5q-125 0 -250 -47v-621z" />
    <glyph glyph-name="uni040C" unicode="&#x40c;" horiz-adv-x="1363" 
d="M780 1561h-221l191 344h301zM467 0h-317v1454h317v-635h6l471 635h356l-540 -706l565 -748h-373l-479 655h-6v-655z" />
    <glyph glyph-name="uni040E" unicode="&#x40e;" horiz-adv-x="1361" 
d="M682 1569q-183 0 -280.5 83.5t-98.5 241.5h211q3 -174 168 -174t168 174h213q-2 -158 -99.5 -241.5t-281.5 -83.5zM524 422l-506 1032h355l317 -747h4l318 747h336l-545 -1137q-95 -198 -185.5 -272t-236.5 -74q-91 0 -195 23v242q79 -17 129 -17q67 0 108 40t101 163z
" />
    <glyph glyph-name="uni040F" unicode="&#x40f;" horiz-adv-x="1445" 
d="M868 -334h-290v334h-428v1454h319v-1206h508v1206h319v-1454h-428v-334z" />
    <glyph glyph-name="uni0410" unicode="&#x410;" horiz-adv-x="1396" 
d="M338 0h-315l469 1454h413l471 -1454h-332l-92 303h-524zM688 1184l-199 -660h402l-199 660h-4z" />
    <glyph glyph-name="uni0411" unicode="&#x411;" horiz-adv-x="1296" 
d="M690 0h-540v1454h944v-248h-631v-358h215q255 0 387.5 -108.5t132.5 -315.5t-129.5 -315.5t-378.5 -108.5zM463 633v-410h199q108 0 165.5 51.5t57.5 147.5v10q0 98 -59 149.5t-173 51.5h-190z" />
    <glyph glyph-name="uni0412" unicode="&#x412;" horiz-adv-x="1355" 
d="M963 766v-4q294 -72 294 -342q0 -198 -144 -309t-402 -111h-561v1454h514q267 0 403.5 -93t136.5 -274q0 -241 -241 -321zM645 1239h-186v-395h194q116 0 179 49.5t63 140.5v15q0 92 -64.5 141t-185.5 49zM676 641h-217v-426h227q126 0 194 54t68 155v16q0 99 -69 150
t-203 51z" />
    <glyph glyph-name="uni0413" unicode="&#x413;" horiz-adv-x="1032" 
d="M469 0h-319v1454h839v-264h-520v-1190z" />
    <glyph glyph-name="uni0414" unicode="&#x414;" horiz-adv-x="1525" 
d="M299 -334h-289v582h117q190 277 190 751v455h1000v-1206h180v-582h-289v334h-909v-334zM440 248h557v958h-391v-268q0 -198 -43.5 -377.5t-122.5 -312.5z" />
    <glyph glyph-name="uni0415" unicode="&#x415;" horiz-adv-x="1142" 
d="M1063 0h-913v1454h894v-248h-581v-348h532v-237h-532v-373h600v-248z" />
    <glyph glyph-name="uni0416" unicode="&#x416;" horiz-adv-x="2113" 
d="M412 0h-371l563 748l-538 706h354l471 -635h8v635h315v-635h9l471 635h354l-539 -706l564 -748h-371l-479 655h-9v-655h-315v655h-8z" />
    <glyph glyph-name="uni0417" unicode="&#x417;" horiz-adv-x="1167" 
d="M512 -29q-225 0 -428 72l18 260q182 -84 357 -84q126 0 198 53.5t72 147.5v10q0 100 -80.5 151.5t-238.5 51.5h-66v225h68q311 0 311 186v9q0 86 -64 134t-180 48q-74 0 -165.5 -19.5t-170.5 -52.5l-18 256q186 64 405 64q248 0 378 -96t130 -279q0 -276 -293 -356v-4
q322 -77 322 -359q0 -195 -148.5 -306.5t-406.5 -111.5z" />
    <glyph glyph-name="uni0418" unicode="&#x418;" horiz-adv-x="1505" 
d="M150 1454h305v-989h4l592 989h305v-1454h-305v989h-4l-592 -989h-305v1454z" />
    <glyph glyph-name="uni0419" unicode="&#x419;" horiz-adv-x="1505" 
d="M754 1569q-184 0 -281.5 83.5t-99.5 241.5h213q3 -174 168 -174q80 0 122.5 44t43.5 130h213q-2 -159 -98.5 -242t-280.5 -83zM150 1454h305v-989h4l592 989h305v-1454h-305v989h-4l-592 -989h-305v1454z" />
    <glyph glyph-name="uni041A" unicode="&#x41a;" horiz-adv-x="1363" 
d="M467 0h-317v1454h317v-635h6l471 635h356l-540 -706l565 -748h-373l-479 655h-6v-655z" />
    <glyph glyph-name="uni041B" unicode="&#x41b;" horiz-adv-x="1449" 
d="M193 -29q-77 0 -181 19v231q42 -10 82 -10q34 0 59.5 11t47.5 38.5t37.5 68.5t28 108t20.5 150.5t13 201.5t7 255.5t2 317.5v92h991v-1454h-319v1206h-375v-49q0 -238 -8 -410.5t-27.5 -308.5t-50 -222.5t-77.5 -142.5t-107 -79t-143 -23z" />
    <glyph glyph-name="uni041C" unicode="&#x41c;" horiz-adv-x="1763" 
d="M461 0h-311v1454h311l420 -682l419 682h312v-1454h-312v944h-4l-407 -670h-15l-409 670h-4v-944z" />
    <glyph glyph-name="uni041D" unicode="&#x41d;" horiz-adv-x="1452" 
d="M469 0h-319v1454h319v-575h514v575h320v-1454h-320v614h-514v-614z" />
    <glyph glyph-name="uni041E" unicode="&#x41e;" horiz-adv-x="1499" 
d="M750 -29q-317 0 -480.5 192t-163.5 564t163.5 564t480.5 192q316 0 479.5 -192t163.5 -564t-163.5 -564t-479.5 -192zM750 219q161 0 240 122t79 370v32q0 248 -79 370t-240 122q-322 0 -322 -492v-32q0 -492 322 -492z" />
    <glyph glyph-name="uni041F" unicode="&#x41f;" horiz-adv-x="1452" 
d="M469 0h-319v1454h1153v-1454h-320v1206h-514v-1206z" />
    <glyph glyph-name="uni0420" unicode="&#x420;" horiz-adv-x="1275" 
d="M463 0h-313v1454h530q262 0 399.5 -117t137.5 -340t-132.5 -339.5t-384.5 -116.5h-237v-541zM463 1219v-453h201q115 0 177 57.5t62 163.5v14q0 106 -64 162t-184 56h-192z" />
    <glyph glyph-name="uni0421" unicode="&#x421;" horiz-adv-x="1206" 
d="M733 -29q-310 0 -471.5 189t-161.5 553q0 374 167 572t481 198q193 0 378 -70l-22 -270q-168 84 -316 84q-175 0 -268.5 -127t-93.5 -363v-30q0 -231 94 -355.5t268 -124.5q151 0 336 90l19 -270q-194 -76 -410 -76z" />
    <glyph glyph-name="uni0422" unicode="&#x422;" horiz-adv-x="1124" 
d="M721 0h-320v1194h-370v260h1061v-260h-371v-1194z" />
    <glyph glyph-name="uni0423" unicode="&#x423;" horiz-adv-x="1361" 
d="M524 422l-506 1032h355l317 -747h4l318 747h336l-545 -1137q-95 -198 -185.5 -272t-236.5 -74q-91 0 -195 23v242q79 -17 129 -17q67 0 108 40t101 163z" />
    <glyph glyph-name="uni0424" unicode="&#x424;" horiz-adv-x="1808" 
d="M1061 -29h-313v176q-329 0 -498.5 151.5t-169.5 446.5q0 293 169.5 444.5t498.5 151.5v142h313v-142q329 0 498.5 -151.5t169.5 -444.5q0 -295 -169.5 -446.5t-498.5 -151.5v-176zM754 369v751q-361 0 -361 -366v-21q0 -364 361 -364zM1055 1120v-751q360 0 360 364v21
q0 366 -360 366z" />
    <glyph glyph-name="uni0425" unicode="&#x425;" horiz-adv-x="1417" 
d="M391 0h-354l469 739l-447 715h369l289 -506l289 506h352l-447 -700l469 -754h-370l-310 545z" />
    <glyph glyph-name="uni0426" unicode="&#x426;" horiz-adv-x="1505" 
d="M1477 -334h-289v334h-1038v1454h319v-1206h508v1206h319v-1206h181v-582z" />
    <glyph glyph-name="uni0427" unicode="&#x427;" horiz-adv-x="1361" 
d="M1212 0h-319v557q-67 -27 -164.5 -44t-187.5 -17q-218 0 -325 112t-107 344v502h319v-481q0 -118 52 -170.5t167 -52.5q132 0 246 43v661h319v-1454z" />
    <glyph glyph-name="uni0428" unicode="&#x428;" horiz-adv-x="2172" 
d="M2023 0h-1873v1454h319v-1206h459v1206h319v-1206h457v1206h319v-1454z" />
    <glyph glyph-name="uni0429" unicode="&#x429;" horiz-adv-x="2230" 
d="M2204 -334h-291v334h-1763v1454h319v-1206h459v1206h319v-1206h457v1206h319v-1206h181v-582z" />
    <glyph glyph-name="uni042A" unicode="&#x42a;" horiz-adv-x="1511" 
d="M907 0h-542v1194h-334v260h647v-561h217q269 0 408 -113.5t139 -333.5q0 -218 -137 -332t-398 -114zM678 668v-432h217q112 0 172.5 54t60.5 154v13q0 103 -61.5 157t-179.5 54h-209z" />
    <glyph glyph-name="uni042B" unicode="&#x42b;" horiz-adv-x="1849" 
d="M688 0h-538v1454h313v-561h211q270 0 409.5 -113.5t139.5 -333.5q0 -218 -137 -332t-398 -114zM1700 0h-320v1454h320v-1454zM463 668v-432h213q112 0 172.5 54t60.5 154v13q0 103 -61.5 157t-179.5 54h-205z" />
    <glyph glyph-name="uni042C" unicode="&#x42c;" horiz-adv-x="1296" 
d="M692 0h-542v1454h313v-561h217q269 0 408 -113.5t139 -333.5q0 -218 -137 -332t-398 -114zM463 668v-432h217q112 0 172.5 54t60.5 154v13q0 103 -61.5 157t-179.5 54h-209z" />
    <glyph glyph-name="uni042D" unicode="&#x42d;" horiz-adv-x="1230" 
d="M481 -29q-214 0 -418 78l23 262q86 -45 181 -71.5t173 -26.5q159 0 252.5 109t108.5 313h-541v229h535q-22 184 -113.5 280.5t-245.5 96.5q-148 0 -334 -88l-18 256q197 74 401 74q317 0 481 -189.5t164 -554.5q0 -372 -167.5 -570t-481.5 -198z" />
    <glyph glyph-name="uni042E" unicode="&#x42e;" horiz-adv-x="2019" 
d="M1294 -29q-280 0 -435.5 163.5t-180.5 481.5h-209v-616h-319v1454h319v-577h213q32 298 187 452t425 154q306 0 462.5 -192t156.5 -564t-156.5 -564t-462.5 -192zM1294 219q297 0 297 492v32q0 492 -297 492t-297 -492v-32q0 -492 297 -492z" />
    <glyph glyph-name="uni042F" unicode="&#x42f;" horiz-adv-x="1355" 
d="M659 1454h547v-1454h-313v541h-168l-348 -541h-357l388 571q-148 40 -226 146.5t-78 271.5q0 226 143 345.5t412 119.5zM668 758h217v461h-207q-121 0 -190.5 -60t-69.5 -164v-14q0 -107 65 -165t185 -58z" />
    <glyph glyph-name="uni0430" unicode="&#x430;" horiz-adv-x="1267" 
d="M504 -25q-200 0 -307 147.5t-107 426.5q0 277 110.5 431.5t313.5 154.5q223 0 322 -191h4l24 166h264v-1110h-288v180h-4q-102 -205 -332 -205zM610 203q100 0 155.5 72t55.5 204v152q0 131 -55 203.5t-154 72.5q-105 0 -159 -84.5t-54 -251.5v-32q0 -336 211 -336z" />
    <glyph glyph-name="uni0431" unicode="&#x431;" horiz-adv-x="1269" 
d="M651 -25q-534 0 -534 643q0 308 53.5 489t173.5 279q77 63 182 96t277 46q227 16 299 33l-15 -244q-71 -18 -303 -31q-119 -7 -199.5 -33t-134 -78.5t-82 -126t-44.5 -184.5h6q135 219 395 219q214 0 333.5 -145t119.5 -403q0 -272 -135.5 -416t-391.5 -144zM647 188
q223 0 223 328v23q0 329 -219 329q-108 0 -166.5 -81.5t-58.5 -233.5v-21q0 -344 221 -344z" />
    <glyph glyph-name="uni0432" unicode="&#x432;" horiz-adv-x="1198" 
d="M891 584v-4q225 -58 225 -258q0 -151 -114.5 -236.5t-315.5 -85.5h-547v1110h520q207 0 314.5 -72.5t107.5 -210.5q0 -179 -190 -243zM600 928h-160v-281h160q90 0 138 35.5t48 101.5v7q0 66 -48 101.5t-138 35.5zM614 477h-174v-295h183q93 0 144.5 39t51.5 109v8
q0 139 -205 139z" />
    <glyph glyph-name="uni0433" unicode="&#x433;" horiz-adv-x="907" 
d="M446 0h-307v1110h748v-223h-441v-887z" />
    <glyph glyph-name="uni0434" unicode="&#x434;" horiz-adv-x="1304" 
d="M287 -283h-264v510h98q125 203 125 568v315h887v-883h139v-510h-264v283h-721v-283zM412 227h413v660h-305v-144q0 -329 -108 -516z" />
    <glyph glyph-name="uni0435" unicode="&#x435;" horiz-adv-x="1179" 
d="M651 -25q-277 0 -419 144t-142 426q0 280 137.5 435t386.5 155q238 0 361 -148t123 -436q0 -49 -2 -78h-703q12 -141 90 -214t215 -73q153 0 338 76l19 -215q-198 -72 -404 -72zM395 645h408q-3 152 -51.5 223.5t-145.5 71.5q-99 0 -153 -74t-58 -221z" />
    <glyph glyph-name="uni0436" unicode="&#x436;" horiz-adv-x="1761" 
d="M375 0h-359l433 575l-408 535h340l342 -477h4v477h307v-477h4l342 477h340l-405 -535l430 -575h-359l-348 489h-4v-489h-307v489h-4z" />
    <glyph glyph-name="uni0437" unicode="&#x437;" horiz-adv-x="1019" 
d="M463 -25q-220 0 -389 58l18 223q68 -34 158 -55t168 -21q102 0 157.5 38.5t55.5 109.5v6q0 143 -273 143h-63v176h63q260 0 260 131v4q0 67 -52 104.5t-146 37.5q-139 0 -289 -72l-16 217q151 60 356 60q216 0 330 -79t114 -227q0 -193 -217 -262v-4q122 -35 181 -102.5
t59 -171.5q0 -154 -121.5 -234t-353.5 -80z" />
    <glyph glyph-name="uni0438" unicode="&#x438;" horiz-adv-x="1310" 
d="M139 1110h291v-698h4l449 698h288v-1110h-288v698h-4l-449 -698h-291v1110z" />
    <glyph glyph-name="uni0439" unicode="&#x439;" horiz-adv-x="1310" 
d="M657 1219q-184 0 -281.5 84t-99.5 241h211q6 -174 168 -174q165 0 168 174h213q-2 -157 -99 -241t-280 -84zM139 1110h291v-698h4l449 698h288v-1110h-288v698h-4l-449 -698h-291v1110z" />
    <glyph glyph-name="uni043A" unicode="&#x43a;" horiz-adv-x="1173" 
d="M446 0h-307v1110h307v-477h5l342 477h340l-406 -535l430 -575h-358l-348 489h-5v-489z" />
    <glyph glyph-name="uni043B" unicode="&#x43b;" horiz-adv-x="1234" 
d="M154 -25q-84 0 -150 17v213q24 -8 62 -8t63.5 23t44.5 76t29.5 150t15 233.5t4.5 338.5v92h873v-1110h-308v887h-280v-66q0 -181 -9.5 -311t-33 -235.5t-64 -169t-101.5 -97t-146 -33.5z" />
    <glyph glyph-name="uni043C" unicode="&#x43c;" horiz-adv-x="1533" 
d="M434 0h-295v1110h295l334 -565l332 565h295v-1110h-295v666h-4l-322 -547h-12l-324 547h-4v-666z" />
    <glyph glyph-name="uni043D" unicode="&#x43d;" horiz-adv-x="1269" 
d="M446 0h-307v1110h307v-428h377v428h307v-1110h-307v461h-377v-461z" />
    <glyph glyph-name="uni043E" unicode="&#x43e;" horiz-adv-x="1239" 
d="M618 -25q-255 0 -391.5 150t-136.5 430t136.5 430t391.5 150q256 0 392.5 -150t136.5 -430q0 -281 -136 -430.5t-393 -149.5zM618 193q220 0 220 346v32q0 347 -220 347q-219 0 -219 -347v-32q0 -346 219 -346z" />
    <glyph glyph-name="uni043F" unicode="&#x43f;" horiz-adv-x="1261" 
d="M446 0h-307v1110h983v-1110h-307v887h-369v-887z" />
    <glyph glyph-name="uni0440" unicode="&#x440;" horiz-adv-x="1267" 
d="M446 -406h-307v1516h297v-166h4q102 191 326 191q196 0 304 -150t108 -424q0 -283 -109.5 -434.5t-316.5 -151.5q-199 0 -301 156h-5v-537zM657 203q103 0 157 85t54 251v32q0 336 -209 336q-100 0 -156.5 -73.5t-56.5 -202.5v-154q0 -129 55.5 -201.5t155.5 -72.5z" />
    <glyph glyph-name="uni0441" unicode="&#x441;" horiz-adv-x="980" 
d="M598 -25q-249 0 -378.5 145t-129.5 425q0 281 137 435.5t385 154.5q150 0 271 -48l-21 -251q-98 57 -211 57q-122 0 -187 -85.5t-65 -246.5v-16q0 -155 65.5 -241.5t182.5 -86.5q113 0 234 64l16 -246q-130 -60 -299 -60z" />
    <glyph glyph-name="uni0442" unicode="&#x442;" horiz-adv-x="1030" 
d="M668 0h-306v887h-321v223h948v-223h-321v-887z" />
    <glyph glyph-name="uni0443" unicode="&#x443;" horiz-adv-x="1179" 
d="M580 -406h-336l186 467l-405 1049h327l244 -717h4l242 717h313z" />
    <glyph glyph-name="uni0444" unicode="&#x444;" horiz-adv-x="1742" 
d="M1024 -406h-305v469h-4q-106 -88 -246 -88q-182 0 -280.5 147.5t-98.5 420.5q0 284 104 438t293 154q126 0 228 -86h4v487h305v-492h4q102 91 244 91q181 0 280 -152t99 -430q0 -280 -101.5 -429t-292.5 -149q-124 0 -229 86h-4v-467zM582 195q84 0 143 59v600
q-61 61 -141 61q-185 0 -185 -348v-28q0 -344 183 -344zM1157 195q94 0 139 84.5t45 261.5v28q0 177 -44 261.5t-136 84.5q-82 0 -143 -61v-600q59 -59 139 -59z" />
    <glyph glyph-name="uni0445" unicode="&#x445;" horiz-adv-x="1220" 
d="M391 0h-356l368 567l-346 543h365l196 -369l195 369h350l-346 -530l369 -580h-371l-213 406z" />
    <glyph glyph-name="uni0446" unicode="&#x446;" horiz-adv-x="1300" 
d="M1270 -283h-266v283h-865v1110h307v-883h377v883h307v-883h140v-510z" />
    <glyph glyph-name="uni0447" unicode="&#x447;" horiz-adv-x="1214" 
d="M1075 0h-307v440q-49 -22 -127 -36.5t-160 -14.5q-189 0 -280.5 93.5t-91.5 287.5v340h307v-313q0 -104 41 -149.5t135 -45.5q95 0 176 33v475h307v-1110z" />
    <glyph glyph-name="uni0448" unicode="&#x448;" horiz-adv-x="1859" 
d="M1720 0h-1581v1110h307v-883h330v883h307v-883h330v883h307v-1110z" />
    <glyph glyph-name="uni0449" unicode="&#x449;" horiz-adv-x="1892" 
d="M1860 -283h-265v283h-1456v1110h307v-883h330v883h307v-883h330v883h307v-883h140v-510z" />
    <glyph glyph-name="uni044A" unicode="&#x44a;" horiz-adv-x="1318" 
d="M313 887h-272v223h577v-397h203q220 0 335.5 -92t115.5 -265q0 -172 -112.5 -264t-325.5 -92h-521v887zM766 526h-148v-336h154q96 0 148.5 43t52.5 121v8q0 79 -53.5 121.5t-153.5 42.5z" />
    <glyph glyph-name="uni044B" unicode="&#x44b;" horiz-adv-x="1683" 
d="M657 0h-518v1110h307v-397h197q220 0 335.5 -92t115.5 -265q0 -172 -112 -264t-325 -92zM1544 0h-307v1110h307v-1110zM446 526v-336h148q96 0 148.5 43t52.5 121v8q0 79 -53.5 121.5t-153.5 42.5h-142z" />
    <glyph glyph-name="uni044C" unicode="&#x44c;" horiz-adv-x="1146" 
d="M662 0h-523v1110h307v-397h203q220 0 335.5 -92t115.5 -265q0 -172 -112.5 -264t-325.5 -92zM446 526v-336h154q96 0 148.5 43t52.5 121v8q0 79 -53.5 121.5t-153.5 42.5h-148z" />
    <glyph glyph-name="uni044D" unicode="&#x44d;" horiz-adv-x="1030" 
d="M393 -25q-182 0 -319 62l18 227q126 -76 256 -76q114 0 185 73.5t88 209.5h-406v180h403q-17 130 -86.5 200.5t-181.5 70.5t-239 -70l-17 227q125 56 301 56q261 0 399 -146.5t138 -421.5q0 -282 -141 -437t-398 -155z" />
    <glyph glyph-name="uni044E" unicode="&#x44e;" horiz-adv-x="1691" 
d="M1094 -25q-221 0 -350 125t-152 361h-146v-461h-307v1110h307v-428h152q28 221 155 337t341 116q246 0 377 -149.5t131 -430.5t-131 -430.5t-377 -149.5zM1094 190q97 0 147.5 88.5t50.5 262.5v28q0 174 -50.5 262.5t-147.5 88.5q-96 0 -146.5 -88.5t-50.5 -262.5v-28
q0 -174 50.5 -262.5t146.5 -88.5z" />
    <glyph glyph-name="uni044F" unicode="&#x44f;" horiz-adv-x="1226" 
d="M575 1110h510v-1110h-307v393h-145l-248 -393h-340l293 434q-211 79 -211 314q0 175 115 268.5t333 93.5zM627 580h151v335h-151q-95 0 -148 -42.5t-53 -120.5v-9q0 -79 52 -121t149 -42z" />
    <glyph glyph-name="uni0451" unicode="&#x451;" horiz-adv-x="1179" 
d="M383 1245q-64 0 -108 43.5t-44 106.5q0 64 43.5 107.5t108.5 43.5q63 0 106 -43.5t43 -107.5q0 -63 -43 -106.5t-106 -43.5zM827 1245q-63 0 -106 43.5t-43 106.5q0 64 43 107.5t106 43.5q65 0 108.5 -43.5t43.5 -107.5q0 -63 -44 -106.5t-108 -43.5zM651 -25
q-277 0 -419 144t-142 426q0 280 137.5 435t386.5 155q238 0 361 -148t123 -436q0 -49 -2 -78h-703q12 -141 90 -214t215 -73q153 0 338 76l19 -215q-198 -72 -404 -72zM395 645h408q-3 152 -51.5 223.5t-145.5 71.5q-99 0 -153 -74t-58 -221z" />
    <glyph glyph-name="uni0452" unicode="&#x452;" horiz-adv-x="1398" 
d="M909 -430q-79 0 -164 10v209q20 -4 76 -4q73 0 104 30.5t31 102.5v719q0 207 -172 207q-94 0 -149 -59.5t-55 -161.5v-623h-306v1202h-233v193h233v141h306v-141h362v-193h-362v-268h4q53 74 138 113.5t191 39.5q172 0 261.5 -102.5t89.5 -298.5v-768q0 -186 -83 -267
t-272 -81z" />
    <glyph glyph-name="uni0453" unicode="&#x453;" horiz-adv-x="907" 
d="M612 1212h-221l191 344h299zM446 0h-307v1110h748v-223h-441v-887z" />
    <glyph glyph-name="uni0454" unicode="&#x454;" horiz-adv-x="1030" 
d="M621 -25q-257 0 -394 147t-137 423q0 284 143.5 437t407.5 153q155 0 291 -52l-19 -231q-120 68 -235 68q-112 0 -183.5 -68.5t-91.5 -196.5h406v-180h-408q12 -138 83 -212.5t190 -74.5q122 0 258 76l16 -225q-144 -64 -327 -64z" />
    <glyph glyph-name="uni0455" unicode="&#x455;" horiz-adv-x="980" 
d="M446 -25q-199 0 -366 66l14 231q188 -82 338 -82q82 0 127 30.5t45 84.5v6q0 28 -14 50t-44 39.5t-58 29t-76 27.5q-35 12 -49 16.5t-49 18t-51.5 23t-46 27t-45 33.5t-36 40.5t-30.5 50.5t-17.5 59.5t-7.5 71.5q0 158 115 248t315 90q160 0 330 -56l-19 -227
q-168 68 -289 68q-72 0 -111.5 -27.5t-39.5 -77.5v-6q0 -18 5.5 -33.5t21.5 -29t27.5 -22t40 -20.5t41.5 -16.5t50 -17.5q36 -11 51 -16.5t50 -18.5t52.5 -22t47 -26.5t45.5 -33.5t36.5 -40t30.5 -50t17.5 -59.5t7.5 -71.5q0 -164 -123.5 -260.5t-335.5 -96.5z" />
    <glyph glyph-name="uni0456" unicode="&#x456;" horiz-adv-x="585" 
d="M293 1241q-74 0 -125 49t-51 119q0 69 51.5 117.5t124.5 48.5q75 0 126.5 -48.5t51.5 -117.5q0 -71 -51.5 -119.5t-126.5 -48.5zM446 0h-307v1110h307v-1110z" />
    <glyph glyph-name="uni0457" unicode="&#x457;" horiz-adv-x="585" 
d="M70 1245q-63 0 -106.5 43.5t-43.5 106.5q0 64 43.5 107.5t106.5 43.5q64 0 107.5 -43t43.5 -108q0 -63 -43.5 -106.5t-107.5 -43.5zM516 1245q-64 0 -107.5 43.5t-43.5 106.5q0 65 43.5 108t107.5 43q63 0 107.5 -43.5t44.5 -107.5q0 -63 -44.5 -106.5t-107.5 -43.5z
M446 0h-307v1110h307v-1110z" />
    <glyph glyph-name="uni0458" unicode="&#x458;" horiz-adv-x="585" 
d="M293 1241q-74 0 -125 49t-51 119q0 69 51.5 117.5t124.5 48.5q75 0 126.5 -48.5t51.5 -117.5q0 -71 -51.5 -119.5t-126.5 -48.5zM94 -430q-78 0 -166 10v209q20 -4 76 -4q73 0 104 30.5t31 102.5v1192h307v-1192q0 -186 -82 -267t-270 -81z" />
    <glyph glyph-name="uni0459" unicode="&#x459;" horiz-adv-x="1794" 
d="M152 -25q-84 0 -150 17v213q24 -8 64 -8q63 0 95.5 69.5t47 243.5t14.5 508v92h871v-397h202q220 0 334.5 -92t114.5 -265q0 -172 -111.5 -264t-324.5 -92h-523v887h-278v-66q0 -181 -9.5 -311t-33.5 -235.5t-64.5 -169t-102 -97t-146.5 -33.5zM1094 526v-336h153
q95 0 147 43t52 121v8q0 79 -53 121.5t-152 42.5h-147z" />
    <glyph glyph-name="uni045A" unicode="&#x45a;" horiz-adv-x="1830" 
d="M446 0h-307v1110h307v-424h377v424h307v-424h207q220 0 332.5 -87t112.5 -257q0 -167 -110 -254.5t-322 -87.5h-527v465h-377v-465zM1130 502v-312h158q95 0 145 38.5t50 113.5v8q0 74 -51.5 113t-149.5 39h-152z" />
    <glyph glyph-name="uni045B" unicode="&#x45b;" horiz-adv-x="1398" 
d="M580 0h-306v1202h-233v193h233v141h306v-141h362v-193h-362v-268h4q53 74 138 113.5t191 39.5q172 0 261.5 -102.5t89.5 -298.5v-686h-308v637q0 207 -172 207q-94 0 -149 -59.5t-55 -161.5v-623z" />
    <glyph glyph-name="uni045C" unicode="&#x45c;" horiz-adv-x="1173" 
d="M686 1212h-221l190 344h299zM446 0h-307v1110h307v-477h5l342 477h340l-406 -535l430 -575h-358l-348 489h-5v-489z" />
    <glyph glyph-name="uni045E" unicode="&#x45e;" horiz-adv-x="1179" 
d="M590 1219q-183 0 -280 84t-99 241h211q3 -174 168 -174t168 174h213q-2 -157 -99.5 -241t-281.5 -84zM580 -406h-336l186 467l-405 1049h327l244 -717h4l242 717h313z" />
    <glyph glyph-name="uni045F" unicode="&#x45f;" horiz-adv-x="1269" 
d="M768 -283h-266v283h-363v1110h307v-883h377v883h307v-1110h-362v-283z" />
    <glyph glyph-name="uni0490" unicode="&#x490;" horiz-adv-x="1032" 
d="M469 0h-319v1454h589v258h250v-522h-520v-1190z" />
    <glyph glyph-name="uni0491" unicode="&#x491;" horiz-adv-x="907" 
d="M446 0h-307v1110h502v238h246v-461h-441v-887z" />
    <glyph glyph-name="Wgrave" unicode="&#x1e80;" horiz-adv-x="2080" 
d="M1155 1561h-221l-270 344h301zM791 0h-336l-408 1454h340l252 -995h4l240 995h329l242 -995h4l250 995h326l-410 -1454h-336l-246 1018h-4z" />
    <glyph glyph-name="wgrave" unicode="&#x1e81;" horiz-adv-x="1763" 
d="M1004 1212h-222l-268 344h301zM686 0h-313l-332 1110h317l191 -766h4l188 766h297l189 -766h4l190 766h301l-331 -1110h-314l-192 788h-4z" />
    <glyph glyph-name="Wacute" unicode="&#x1e82;" horiz-adv-x="2080" 
d="M1139 1561h-221l190 344h299zM791 0h-336l-408 1454h340l252 -995h4l240 995h329l242 -995h4l250 995h326l-410 -1454h-336l-246 1018h-4z" />
    <glyph glyph-name="wacute" unicode="&#x1e83;" horiz-adv-x="1763" 
d="M981 1212h-221l190 344h299zM686 0h-313l-332 1110h317l191 -766h4l188 766h297l189 -766h4l190 766h301l-331 -1110h-314l-192 788h-4z" />
    <glyph glyph-name="Wdieresis" unicode="&#x1e84;" horiz-adv-x="2080" 
d="M817 1591q-63 0 -107 43.5t-44 106.5q0 64 44 107.5t107 43.5q65 0 108.5 -43.5t43.5 -107.5q0 -63 -44 -106.5t-108 -43.5zM1264 1591q-64 0 -108 43.5t-44 106.5q0 64 43.5 107.5t108.5 43.5q63 0 106 -43.5t43 -107.5q0 -63 -43 -106.5t-106 -43.5zM791 0h-336
l-408 1454h340l252 -995h4l240 995h329l242 -995h4l250 995h326l-410 -1454h-336l-246 1018h-4z" />
    <glyph glyph-name="wdieresis" unicode="&#x1e85;" horiz-adv-x="1763" 
d="M659 1245q-64 0 -107.5 43.5t-43.5 106.5q0 65 43 108t108 43q63 0 106.5 -43.5t43.5 -107.5q0 -63 -43.5 -106.5t-106.5 -43.5zM1104 1245q-63 0 -106.5 43.5t-43.5 106.5q0 64 43.5 107.5t106.5 43.5q64 0 107.5 -43t43.5 -108q0 -63 -43.5 -106.5t-107.5 -43.5zM686 0
h-313l-332 1110h317l191 -766h4l188 766h297l189 -766h4l190 766h301l-331 -1110h-314l-192 788h-4z" />
    <glyph glyph-name="uni1E9E" unicode="&#x1e9e;" horiz-adv-x="1447" 
d="M872 -29q-125 0 -260 33l17 254q80 -39 184 -39q96 0 149.5 49.5t53.5 137.5v8q0 41 -18.5 79t-45.5 66.5t-64 55.5t-68.5 45t-64.5 35l-14 7l-73 39v13l305 456q-80 25 -164 25q-177 0 -263.5 -90t-86.5 -273v-872h-320v874q0 302 161.5 455.5t479.5 153.5
q230 0 496 -86v-180l-256 -388l20 -10q297 -149 297 -432q0 -191 -125.5 -303.5t-339.5 -112.5z" />
    <glyph glyph-name="Ygrave" unicode="&#x1ef2;" horiz-adv-x="1351" 
d="M791 1561h-222l-270 344h301zM836 0h-320v547l-498 907h355l309 -608h4l307 608h340l-497 -907v-547z" />
    <glyph glyph-name="ygrave" unicode="&#x1ef3;" horiz-adv-x="1179" 
d="M713 1212h-221l-271 344h301zM580 -406h-336l186 467l-405 1049h327l244 -717h4l242 717h313z" />
    <glyph glyph-name="uni2008" unicode="&#x2008;" horiz-adv-x="616" 
 />
    <glyph glyph-name="uni2009" unicode="&#x2009;" horiz-adv-x="116" 
 />
    <glyph glyph-name="uni200B" unicode="&#x200b;" 
 />
    <glyph glyph-name="uni2060" unicode="&#x2060;" 
 />
    <glyph glyph-name="uniFEFF" unicode="&#xfeff;" 
 />
    <glyph glyph-name="NULL" 
 />
    <glyph glyph-name="uni0308.case" 
d="M-629 1591q-63 0 -106 43.5t-43 106.5q0 64 43 107.5t106 43.5q65 0 108.5 -43.5t43.5 -107.5q0 -63 -44 -106.5t-108 -43.5zM-182 1591q-64 0 -108 43.5t-44 106.5q0 64 43.5 107.5t108.5 43.5q63 0 106 -43.5t43 -107.5q0 -63 -43 -106.5t-106 -43.5z" />
    <glyph glyph-name="uni0307.case" 
d="M-193 1589q-66 0 -110.5 45t-44.5 111q0 65 44.5 109t110.5 44t111 -44t45 -109q0 -66 -45 -111t-111 -45z" />
    <glyph glyph-name="gravecomb.case" 
d="M-41 1561h-221l-268 344h301z" />
    <glyph glyph-name="acutecomb.case" 
d="M-309 1561h-221l190 344h299z" />
    <glyph glyph-name="uni030B.case" 
d="M-715 1561h-209l193 344h285zM-330 1561h-209l213 344h285z" />
    <glyph glyph-name="uni0302.case" 
d="M-557 1561h-213l240 344h249l240 -344h-213l-152 198z" />
    <glyph glyph-name="uni030C.case" 
d="M-281 1561h-249l-240 344h213l151 -199l152 199h213z" />
    <glyph glyph-name="uni0306.case" 
d="M-401 1569q-172 0 -266 83.5t-95 241.5h174q1 -75 50 -115t137 -40t136.5 40t49.5 115h174q-1 -158 -94.5 -241.5t-265.5 -83.5z" />
    <glyph glyph-name="uni030A.case" 
d="M-285 1550q-105 0 -175 68t-70 170q0 101 70 168t175 67q104 0 174 -67t70 -168q0 -103 -69.5 -170.5t-174.5 -67.5zM-285 1679q45 0 75 31t30 78q0 46 -30 76t-75 30q-44 0 -74 -30t-30 -76q0 -47 30 -78t74 -31z" />
    <glyph glyph-name="tildecomb.case" 
d="M-268 1589q-48 0 -95.5 20t-79 44.5t-66 44.5t-58.5 20q-31 0 -50.5 -31.5t-23.5 -91.5h-147q6 138 65.5 216.5t159.5 78.5q48 0 96.5 -20t80 -44.5t66 -44.5t58.5 -20q65 0 74 123h147q-6 -138 -66 -216.5t-161 -78.5z" />
    <glyph glyph-name="uni0304.case" 
d="M-41 1624h-608v170h608v-170z" />
    <glyph glyph-name="brevecombcy" 
d="M-401 1219q-184 0 -281.5 84t-97.5 241h211q3 -174 168 -174t168 174h210q0 -157 -97 -241t-281 -84z" />
    </font>
</defs>
</svg>
